<mxfile host="Electron" agent="Mozilla/5.0 (Windows NT 10.0; Win64; x64) AppleWebKit/537.36 (KHTML, like Gecko) draw.io/26.0.4 Chrome/128.0.6613.186 Electron/32.2.5 Safari/537.36" version="26.0.4">
  <diagram name="Page-1" id="zYGdWZgTwoy_zEnzfcTt">
    <mxGraphModel dx="1450" dy="621" grid="0" gridSize="10" guides="1" tooltips="1" connect="1" arrows="1" fold="1" page="0" pageScale="1" pageWidth="850" pageHeight="1100" math="0" shadow="0">
      <root>
        <mxCell id="0" />
        <mxCell id="1" parent="0" />
        <mxCell id="QqyXvFsGp9C_HlbH7b5Y-1" value="Cloud&#xa;Functions" style="sketch=0;html=1;verticalAlign=top;labelPosition=center;verticalLabelPosition=bottom;align=center;spacingTop=-6;fontSize=11;fontStyle=1;fontColor=#999999;shape=image;aspect=fixed;imageAspect=0;image=data:image/svg+xml,PHN2ZyB4bWxucz0iaHR0cDovL3d3dy53My5vcmcvMjAwMC9zdmciIHhtbG5zOnY9Imh0dHBzOi8vdmVjdGEuaW8vbmFubyIgd2lkdGg9IjIwIiBoZWlnaHQ9IjE5Ljk4OTk5OTc3MTExODE2NCIgdmlld0JveD0iMCAwIDIwIDE5Ljk4OTk5OTc3MTExODE2NCI+JiN4YTsJPHN0eWxlIHR5cGU9InRleHQvY3NzIj4mI3hhOwkuc3Qwe2ZpbGw6IzQyODVmNDt9JiN4YTsJLnN0MXtmaWxsOiM2NjlkZjY7fSYjeGE7CS5zdDJ7ZmlsbDojYWVjYmZhO30mI3hhOwk8L3N0eWxlPiYjeGE7CTxwYXRoIGNsYXNzPSJzdDEiIGQ9Ik0zIDMuOTlMMCA2LjQydjcuMTNsMyAyLjQ0eiIvPiYjeGE7CTxwYXRoIGNsYXNzPSJzdDAiIGQ9Ik0zIDMuOTlsLTMgNCAzLTJ6bS0zIDhsMyA0di0yeiIvPiYjeGE7CTxwYXRoIGNsYXNzPSJzdDIiIGQ9Ik0wIDE1Ljk5bDQgNCAyLTItNi02em0uMDEtOEw1Ljk5IDJsLTItMkwwIDMuOTl6Ii8+JiN4YTsJPHBhdGggY2xhc3M9InN0MSIgZD0iTTE3IDE2bDMtMi40MlY2LjQ0TDE3IDR6Ii8+JiN4YTsJPHBhdGggY2xhc3M9InN0MCIgZD0iTTE3IDE2bDMtNC0zIDJ6bTMtOGwtMy00djJ6Ii8+JiN4YTsJPGcgY2xhc3M9InN0MiI+JiN4YTsJCTxwYXRoIGQ9Ik0yMCA0bC00LTQtMiAyIDYgNnptLS4wMSA4bC01Ljk4IDUuOTkgMiAyTDIwIDE2eiIvPiYjeGE7CQk8Y2lyY2xlIGN4PSI2IiBjeT0iOS45OSIgcj0iMSIvPiYjeGE7CQk8Y2lyY2xlIGN4PSIxMCIgY3k9IjkuOTkiIHI9IjEiLz4mI3hhOwkJPGNpcmNsZSBjeD0iMTMuOTkiIGN5PSI5Ljk5IiByPSIxIi8+JiN4YTsJPC9nPiYjeGE7PC9zdmc+;" vertex="1" parent="1">
          <mxGeometry x="168" y="120" width="84" height="68" as="geometry" />
        </mxCell>
        <mxCell id="QqyXvFsGp9C_HlbH7b5Y-4" value="Cloud&#xa;Scheduler" style="sketch=0;html=1;verticalAlign=top;labelPosition=center;verticalLabelPosition=bottom;align=center;spacingTop=-6;fontSize=11;fontStyle=1;fontColor=#999999;shape=image;aspect=fixed;imageAspect=0;image=data:image/svg+xml,PHN2ZyB4bWxucz0iaHR0cDovL3d3dy53My5vcmcvMjAwMC9zdmciIHhtbG5zOnY9Imh0dHBzOi8vdmVjdGEuaW8vbmFubyIgd2lkdGg9IjM2MC4zMDM3NjY4NjA4MzYzIiBoZWlnaHQ9IjM3OC4wNTExNTgwNzc0MDg4IiB2aWV3Qm94PSItMC4wMDAxNjI0MjExNDM2MTM3NTU3IC0wLjAwMDEwMDAwNTk0OTIwNzExNTkyIDk1LjMzMDI2MTIzMDQ2ODc1IDEwMC4wMjYxMDAxNTg2OTE0Ij4mI3hhOzxzdHlsZSB0eXBlPSJ0ZXh0L2NzcyI+JiN4YTsJLnN0MHtmaWxsOiM0Mjg1ZjQ7fSYjeGE7CS5zdDF7ZmlsbDojYWVjYmZhO30mI3hhOwkuc3Qye2ZpbGw6IzY2OWRmNjt9JiN4YTs8L3N0eWxlPiYjeGE7CTxwYXRoIGNsYXNzPSJzdDAiIGQ9Ik03OS45NzEgNzcuNzE1bC03LjM1OSA3LjQ4OCA4LjYzOSA4LjQ5IDcuMzU5LTcuNDg4em0tNjUuMDk2LjA2MWwtOC42NDEgOC40OTIgNy4zNjEgNy40ODggOC42MzktOC40OXoiLz4mI3hhOwk8cGF0aCBjbGFzcz0ic3QxIiBkPSJNNzkuNTUzLjIyMWE1LjI1IDUuMjUgMCAwIDAtMy42NiA4Ljk4NEw4Ni4zODkgMTkuNThhNS4yNSA1LjI1IDAgMCAwIDguOTQxLTMuNzY1IDUuMjUgNS4yNSAwIDAgMC0xLjU2LTMuNzA0TDgzLjI3NSAxLjczOEE1LjI1IDUuMjUgMCAwIDAgNzkuNTUzLjIyMXpNMTUuOTE2IDBhNS4yNSA1LjI1IDAgMCAwLTMuNzIzIDEuNTE2TDEuNjk5IDExLjg5MWE1LjI1IDUuMjUgMCAwIDAtLjA0MyA3LjQyNCA1LjI1IDUuMjUgMCAwIDAgNy40MjQuMDQzTDE5LjU3NiA4Ljk4MkE1LjI1IDUuMjUgMCAwIDAgMTUuOTE2IDB6Ii8+JiN4YTsJPHBhdGggY2xhc3M9InN0MCIgZD0iTTQ4LjEzOCAyNi4yNGMxMy4zNDcgMCAyNS40MzIgMTEuMTM2IDI1LjMxIDI2LjQ4MSAwIDE1LjExLTEyLjI2NyAyNS42NzMtMjUuMTg5IDI1LjY3My0xMS4xNDkgMC0xOC4zMTctNS4xNzEtMjEuOTYtMTAuNzM4bDIxLjgzOS0xNS4wOTd6Ii8+JiN4YTsJPHBhdGggY2xhc3M9InN0MiIgZD0iTTgxLjI1IDkzLjY5M2w0LjY2NCA0LjU4NmE1LjI1IDUuMjUgMCAxIDAgNy4zNjEtNy40OWwtNC42NjYtNC41ODR6TTYuMjM0IDg2LjI2OEwxLjU3IDkwLjg1MWE1LjI1IDUuMjUgMCAwIDAtLjA2NSA3LjQyNCA1LjI1IDUuMjUgMCAwIDAgNy40MjQuMDY0bDQuNjY2LTQuNTg0ek00Ny4zNzEgNS41NzhDMjEuMzQ5IDUuNTc4LjE0NiAyNi43NzkuMTQ2IDUyLjgwMXMyMS4yMDMgNDcuMjI1IDQ3LjIyNSA0Ny4yMjUgNDcuMjI1LTIxLjIwMyA0Ny4yMjUtNDcuMjI1UzczLjM5MyA1LjU3OCA0Ny4zNzEgNS41Nzh6bTAgMTBhMzcuMTUgMzcuMTUgMCAwIDEgMzcuMjI1IDM3LjIyM2MwIDIwLjYxNy0xNi42MDcgMzcuMjI1LTM3LjIyNSAzNy4yMjVTMTAuMTQ2IDczLjQxOCAxMC4xNDYgNTIuODAxYTM3LjE1IDM3LjE1IDAgMCAxIDM3LjIyNS0zNy4yMjN6Ii8+JiN4YTs8L3N2Zz4=;" vertex="1" parent="1">
          <mxGeometry x="-241" y="111" width="81.9" height="86" as="geometry" />
        </mxCell>
        <mxCell id="QqyXvFsGp9C_HlbH7b5Y-5" value="Pub/Sub" style="sketch=0;html=1;verticalAlign=top;labelPosition=center;verticalLabelPosition=bottom;align=center;spacingTop=-6;fontSize=11;fontStyle=1;fontColor=#999999;shape=image;aspect=fixed;imageAspect=0;image=data:image/svg+xml,PHN2ZyB4bWxucz0iaHR0cDovL3d3dy53My5vcmcvMjAwMC9zdmciIHhtbG5zOnY9Imh0dHBzOi8vdmVjdGEuaW8vbmFubyIgd2lkdGg9IjE4LjMxOTk5OTY5NDgyNDIyIiBoZWlnaHQ9IjIwLjAwMDAwMTkwNzM0ODYzMyIgdmlld0JveD0iMCAwIDE4LjMxOTk5OTY5NDgyNDIyIDIwLjAwMDAwMTkwNzM0ODYzMyI+JiN4YTsJPHN0eWxlIHR5cGU9InRleHQvY3NzIj4mI3hhOwkuc3Qwe2ZpbGw6IzY2OWRmNjt9JiN4YTsJLnN0MXtmaWxsOiM0Mjg1ZjQ7fSYjeGE7CS5zdDJ7ZmlsbDojYWVjYmZhO30mI3hhOwk8L3N0eWxlPiYjeGE7CTxkZWZzPiYjeGE7CQk8ZmlsdGVyIGlkPSJBIiB4PSI0LjY0IiB5PSI0LjE5IiB3aWR0aD0iMTQuNzMiIGhlaWdodD0iMTIuNzYiIGZpbHRlclVuaXRzPSJ1c2VyU3BhY2VPblVzZSIgY29sb3ItaW50ZXJwb2xhdGlvbi1maWx0ZXJzPSJzUkdCIj4mI3hhOwkJCTxmZUZsb29kIGZsb29kLWNvbG9yPSIjZmZmIi8+JiN4YTsJCQk8ZmVCbGVuZCBpbj0iU291cmNlR3JhcGhpYyIvPiYjeGE7CQk8L2ZpbHRlcj4mI3hhOwkJPG1hc2sgaWQ9IkIiIHg9IjQuNjQiIHk9IjQuMTkiIHdpZHRoPSIxNC43MyIgaGVpZ2h0PSIxMi43NiIgbWFza1VuaXRzPSJ1c2VyU3BhY2VPblVzZSI+JiN4YTsJCQk8Y2lyY2xlIGN4PSIxMiIgY3k9IjEyLjIzIiByPSIzLjU4IiBmaWx0ZXI9InVybCgjQSkiLz4mI3hhOwkJPC9tYXNrPiYjeGE7CTwvZGVmcz4mI3hhOwk8ZyBjbGFzcz0ic3QwIj4mI3hhOwkJPGNpcmNsZSBjeD0iMTYuMTMiIGN5PSI2LjIxIiByPSIxLjcyIi8+JiN4YTsJCTxjaXJjbGUgY3g9IjIuMTkiIGN5PSI2LjIxIiByPSIxLjcyIi8+JiN4YTsJCTxjaXJjbGUgY3g9IjkuMTYiIGN5PSIxOC4yOCIgcj0iMS43MiIvPiYjeGE7CTwvZz4mI3hhOwk8ZyBtYXNrPSJ1cmwoI0IpIiB0cmFuc2Zvcm09InRyYW5zbGF0ZSgtMi44NCAtMikiPiYjeGE7CQk8cGF0aCB0cmFuc2Zvcm09Im1hdHJpeCguNSAtLjg3IC44NyAuNSAtNC41OSAyMC41MykiIGQ9Ik0xNC42OSAxMC4yMmgxLjU5djguMDRoLTEuNTl6IiBjbGFzcz0ic3QxIi8+JiN4YTsJCTxwYXRoIHRyYW5zZm9ybT0icm90YXRlKDMzMCA4LjUyMyAxNC4yNDQpIiBkPSJNNC40OSAxMy40NWg4LjA0djEuNTlINC40OXoiIGNsYXNzPSJzdDEiLz4mI3hhOwkJPHBhdGggZD0iTTExLjIgNC4xOWgxLjU5djguMDRIMTEuMnoiIGNsYXNzPSJzdDEiLz4mI3hhOwk8L2c+JiN4YTsJPGcgY2xhc3M9InN0MiI+JiN4YTsJCTxjaXJjbGUgY3g9IjkuMTYiIGN5PSIxMC4yMyIgcj0iMi43OCIvPiYjeGE7CQk8Y2lyY2xlIGN4PSIyLjE5IiBjeT0iMTQuMjUiIHI9IjIuMTkiLz4mI3hhOwkJPGNpcmNsZSBjeD0iMTYuMTMiIGN5PSIxNC4yNSIgcj0iMi4xOSIvPiYjeGE7CQk8Y2lyY2xlIGN4PSI5LjE2IiBjeT0iMi4xOSIgcj0iMi4xOSIvPiYjeGE7CTwvZz4mI3hhOzwvc3ZnPg==;" vertex="1" parent="1">
          <mxGeometry x="-27" y="112.5" width="75.1" height="83" as="geometry" />
        </mxCell>
        <mxCell id="QqyXvFsGp9C_HlbH7b5Y-6" value="" style="endArrow=classic;html=1;rounded=0;exitX=1;exitY=0.5;exitDx=0;exitDy=0;entryX=0;entryY=0.5;entryDx=0;entryDy=0;flowAnimation=1;strokeColor=#FF66FF;" edge="1" parent="1" source="QqyXvFsGp9C_HlbH7b5Y-4" target="QqyXvFsGp9C_HlbH7b5Y-5">
          <mxGeometry width="50" height="50" relative="1" as="geometry">
            <mxPoint x="-132" y="170" as="sourcePoint" />
            <mxPoint x="-82" y="120" as="targetPoint" />
          </mxGeometry>
        </mxCell>
        <mxCell id="QqyXvFsGp9C_HlbH7b5Y-7" value="" style="endArrow=classic;html=1;rounded=0;exitX=1;exitY=0.5;exitDx=0;exitDy=0;entryX=0;entryY=0.5;entryDx=0;entryDy=0;flowAnimation=1;strokeColor=#FF66FF;" edge="1" parent="1">
          <mxGeometry width="50" height="50" relative="1" as="geometry">
            <mxPoint x="36" y="156" as="sourcePoint" />
            <mxPoint x="168" y="156" as="targetPoint" />
          </mxGeometry>
        </mxCell>
        <mxCell id="QqyXvFsGp9C_HlbH7b5Y-8" value="" style="shape=image;verticalLabelPosition=bottom;labelBackgroundColor=default;verticalAlign=top;aspect=fixed;imageAspect=0;image=data:image/png,iVBORw0KGgoAAAANSUhEUgAAAPIAAADKCAYAAACfQR1kAAAAAXNSR0IArs4c6QAAAARnQU1BAACxjwv8YQUAAAAJcEhZcwAAEnQAABJ0Ad5mH3gAAK9kSURBVHhe7P3Zj2Xbct6L/SLGmM1qs6na+zSUrjrYF7ZxYT8Zgl9kGH7wk/8m/RMGDBgGZLnXtS1fAdI1xatLUg0piqAk8pJifw5Pu5uqym51sxljhB9irMyqfQ6pS1LAqaqdkZh7Z61cudaaM+c3IkbEF1+ImRkfqFk9FKCcHyn+pQUAAbQIkt/6rWCYFmYaZhpaCk2aMIWZTDse4ft/zA/++f+X+Q9+hXXZ08935NJjsuZVv2TzP/kv+Pb/9H/Bqz/+gte/9k/41uF7qPVY7jCdKTLxJxd/jcu/87/lb/7t/xVsvgmyxCSCQCmFogIiKKAYgvkpIPWzClnqQ4BQEAy18nTmdj7e+jU1ihSsfvk7nH/4ZIogP+XxZ/vwTL/6wIdk8lNvz/q4CWKKlAAE0Aga/JAAKApEM9QMxEFVUAgNbC5oNhecJJJDQ5FAsYKQCWVG5wEU4tUlulghNKBKlgRSHGzjQHm4h2kEKUBBBByHhuKHPELu6aRMvgpiPyc1wOoP/CXfAbEJFF++oMLUX7vU44Ndt5/tz7APGsi8DWQ5+2d/VCwgFoAIBEwU04BJoJhgpkgxQskOOhEMBYmgDSw3tNtrpqZn0gZiCyKIzWiZaNIAasSXL+gurjE6CkLWjJERK3QlE/d7GI5Aplh5/IgqQqje+PxgATKQEfJbGKWempg4Uh3pT+etRlFIAWaF/Ajm+pTHV/YX8kXhp3vpZ/sw7YMHspuBFEwKJh5M+k3qIefZicFbgC8FLUY0g2LV5SkiAUShaekvr9DVlhGhaECDohQainvkeaJ5cc3qxacU6cgIBAeNUlhKQR5uSQ+3WIWmAR5R+wc6f9LzMnR2sr4xqB/5rePsaUH8XCRjmili7zho/z2p4TMetlNdt6n/6lvv8Wwftn3gQD6HpMUDR/HDQVvDT6tOC0MsIWVG84ymGSn1ti8Fqx7qcc8oSn95RX/9klOBVEBDIEalUSjDiXQ6EbZbFtcvyKFjRiD4ohIEupLIt68Ybl9DSYg6nN5Fr7/nu6Dypej8VPBzOAMUFFQ9XJcEJIwZeyuoVgMt/pQn6D8tB/AW4p/tg7cPGshve7HzHtPvTUPMUMtonpB8gnSAvIf0APMDTA+QTu6NkbpTdUh5+s/Q1Zru4pLJhGSAKhqEKEIZR4ZhIPQ9cb1lDD2zuJc8f5JYEra7Yd7dInlGpDzh6BxmV2SfwXz2nk/HW78CFKnHWz/xTYERKL7vriB+SoS9/epPb/uM44/HPnAg++7vKaT0LzFDLMM8wOke9q9g9xm8+R784D/Ad36T02//ax7+8LfdUwbfQ5di7r1UIShcXnL56beQtsc0MpfCOI1oUCwXUsoYSn/9Ketv/hVyaAhBCUFRjbQK7XzidPOKw6svyKcj2aBYrpiqEDWHsuKRg1LQGp4rBSuZlDK5+BJRBBJCyeCbY/fATImYDIYC6YxUBQJCeMpSe3T9jnN+tg/bPmggU8H8bvAotYyTYdix+8Ef8qN/88v88T/+f/Jb/4//A7/6f/7f8S//r/97fv0f/n2+9+//NcyTLwEVWJ4VxrPYsSGuNrSrDVkCRQSCkHNiniam0wnmBIsV82rDpKGiUjFRxBItE3l/T9k9EN7Zxf6kP/yqN85pJM0TqkLTBkJ0EFI/HrGB0JDMKLmQU/K9f9CnSwJvXR/qcvenfYJn+1Dtgwcyj/BV1LSWnQysMN5+ye/861/i9/7lz/Pq3/8L7E9+i82rP+bl/kd8e77hMh9gPID5HluouTDES1Ta0Gwu6bdXJAsUBIlKzok0TYy7PeVwgvWGdHHFFCJWHMhZA1imZWa6fU26uYGSMDJ2TrC9bfV9zwGwAE2INDEiAqVk0jwxjgPzPJDLxAyMBGh6JDZ0ywXSBIrCXDxPXTyyrmfnMcyzI/747IMH8vmm15rUknN5BqMNwqZTFunICzvxrTDzTUYuxh3d/g22u8GOO7AEtcb76KrUy1BxdcHy4kX1yOreTgwpmelhx3xzB10P19dY10M2ignJFLNMExLz7o755jVMo2evH0tlNTf96CLfSrGbeP1blFK8BtxEYdkFFo3SqxFqJjynI8wH8rAjnx4QyUgDWWEWj7LP9JCnUtRbDvvZPnj7wIHsYBAKap6qOlMsUEH6luuLDa3NNKcd8fDAYjyxFbhsWxZqzMcHKHN9HX9JM/VasjToYku3ucK09Vq0vzSNQj4cSG/uQAL64pqwXEPxGnXCnxs0w3ig3N7BeEKkIGqgYFJqlt1LZ35Kvqc1AikbcyqIKEEDIuafdT7BsEemHSHv6RhRRkKYCZwQGxA1ijxVj33bIIhBMN+HPwfXH4+990A2sz/1cPCd6RPu1kyEIkrRAIsFly+vWS56uhBoDGKBYMqcYDwNpJN7ZMEePbIhlUoZkW5Fv75A2x7TQCmZoBAV7HRiurmFlGheXLO4vCRUIBaJSBCMmVASebeDw+GRXXUumhVJFLL/ywwzoRShmJDNCSyGuLeeJxgOMJ3AJsJ4IN6/hi9/BD/8Dnz39xj++D/Aw2tkPiAlP+2Fz9vz86X6amj/bB+0vfdA/rPMk0LpkQd1DlaTBk88qXIqxikbyZRsEQk9NCtG6ThNmTQePXNt5YkrYp4vRltoV7TLLbFbIqLM8wRWCGowj+SHHUwTzdUl68srojaIBCREUCGViYjB8cR8PDiAzUFbyA7ix5JVTXPVErhEoYgw50IpxTPpTYR5wF59RvrD/8Dx13+Vz37+H/Mf/u9/n3/zf/s/8Vv/5L9i98e/i05HOhIBL23rY7juJaman//qJX22D9Q+bCCbeb20cN4pv5UXLtAvufj0r7G++IQ2NhQKoxSygErASianESwTiqM4C+TKkjIJEHq0XUG/Zg6RyQpmhZALIQ8w30EaafstcX3B2HUUFSIJEWEyJVJohjvK6QGxBDk/Ja89jqjMy4zKDDjN0gRmg2FOpGIedh9O/PC3foNf/gd/j1/5f/09fv+/+f/w6t/+C8r3f5/u9kf0uy8Ip3sYj5BSzR349sOxrJSn5PezfST2XgH5HDKX4h6olIKIPB5ffS4Jr5lOgEVMayonz6iN7nn6b/Dik/8MGwbaTpmaRJKJVVRIA8NpB2bIlD3TrYkUCxOJeU4wQnP5CYtv/hwP2ZC+RzXQZKOXmTJ9gR0faMMG3V5zv15yKCNhuEdFyM2aYBM8/ID08DmxTEQzQgmoBUo2rNIlVWaQI+iJIkbCk+fdomMqgiWB5QWXZeJ69yO2D9/j5fw5L/JrPtUD6/E18fA5p4dXUDKYoBnEMoWJKcApKFlAxEtcz/Zx2HsF5D+3aYBuCW3vyS2gEVgEpRXfDMpizeblNwj9gtEyJcKUR8ZxT55PzMMBSvLXE7Dgi0ZACCF6s0S3gMUKazqyBFQDAVCbmE83jId7yEZYrMjrDdZEuqjV6ylRjFiOpNMDZRrq40LQSBsarMA4JaZxpEwjKWcKxphmjuNIyoWuaZDYwJQIAr0aCya6ecfCRnobWcpMayOH29eMxz3Ymf9Vuegep2DPHvmjsw8GyG+3TZ+/LyKY+p4yWSbPM0wzzAfSsGMej8gi0l1fkFdrjgamSiIxMVLKRDodIM2VYSEEAgGtQK570n5Bs96i3QKTgKqiUpAyM+7vGHb3SEks12vCakMJEYkNVgqBQhSDnDnuHhgOe4+pBcgZSwUl0DQL2m6DdltiWBFQlrHhoutoRQiWIE9QEotvfovrv/636DcXTgDxq0JQIWLcv/qCaXfvdesKYD+7MzXk7Iuf4fyx2AcB5J8GYoBcMtM0Qh6JZaApJ5p8JOQTTR5omNEGShPIixVJGwQlqNJ0SpCMDXuYBhAo2VNAihAMvzxBoe9pt1fE5ZZCrLDIDq7xUEtYCV1vkOWW0dRrt5aJUoFsmePDHaf7W2ediW8hvBXaSR9YgBLQnNEpEU4HunFPO9yh4wNMe7AZ2o4vjhOnudT8gGGWiepNm8PdLXbYgU2Y+HvZIwXU15HnwPrjsvceyD8NxOe9tFpG8ogMD7D7Em5/BF98F374R/D9P6LcfA42UYKim2usWUB25nGMSigzctrD4eFM6XLPVUBzJWcIEFvi5opufYVJTzahWCJKoisjdto5Q6zv0fUVc2gYiweykUSgEKww7XcMD7fuWcXQGNCmQRVygXmaYc5ITrRloMlHGG7h5gek7/0Ohx/8IUxHuLqie/FttFu7PIIZpWbeWwEdT9juDtIAkmpA7fTTUIMBp6Q+28di7z2Qz/Y2iM8WxGiZSW9+yO1v/xpf/Muf54f/5B/w7//B3+Of/V/+j/z7X/p5yEfiakH/8ptYXGIlYMW9peQZO9wz3ryCNNVmi9o5VAQrxgwQInF7TX/xEgsLsnmXU5RCT2La3XK6eQUh0l9/SlhdMKGYCFrr3FGhjEfy3rPciBefnHVVK0tBIA2kL77P/W//Oje/+gvc/OI/5Ds//1/y6//w7/Nv/vE/4LPf/g3YH9l++ldpVxcuhFAL4IoRyfR5Zn7zJQw7kBnw8xLD1VBqsevZPh5774H8RP74KY+PR+5+8If8zr/6Bf79P/2HfPdf/dccf+/XaD7/Iza7V4S7L8ivfgjbDf2Lb5BiTwwLNDQYQrDM/HDLw6vPYD55FddJV1UxxMtAaENYX9FtX0CzJItiakQtNGXmdPOKh89/AAarT77N4voTcmyQELwLq3iCStOInHbuKXExgJlColAsQT4x717z2e//O37zF/7f/O4v/Jd8+av/hPxHv87qyz9gdf9jluM9FOOTb/9N+vU1RRtMlKCCiqEl09vM8fMfYoc7hLnSMp3V5ZXqZ/vY7L0H8tv2VUBLG7m83rJpQY9v6E43XOQdL2Tk08Zoxgfuv/wBLDvYXjM3C6TtIUQIQlTDjjtOd68po2evH2nQ5mB2+R7PjsfVJXRrskYsKCJGsJl5d8t48yWUTHf5ku7iBTk6E+y8G1WFWGbiuHePTEFrSS3liZJniEKz6LhcRNY2spruWe5fcTHccDHc0O2+pNx+DsMJeflNmvWWHFuKBkQFFcAyXUnMN19ipweCTSjFm0n8Ir5zDZ/t47CfOZDf9rhfrRnbV2rK5+c+AtoKtJFvfOMFC01cdtDnA834QDMdmO5fc//lD70L6eU3WH/r5xgEDvPIZBmzmc4mpocb0vEByuQ3e3VZqooBCSVJpNtcsbz+lNJ0lBgpVmjUnMs97mEcaNYXNJtLaqrNg1jB6aRpoOxufE9eXNsLXE0kBg+PEWOzXnCxiKxILOYD3XDPhR3ZcmJ4/UPfJzcN7fYSWW2YzAklhmE50VuG3S3j/RtsPnlNWRTEWzDNnr3yx2Y/cyD/x+xtcH/1QAPEDo0dXWyJ4DVbjNaMOE3k+zs4DdhiRbu9IKsS2xZF0FJoyNh4YLp7DWWi5NqR7/E1iosEhGZBt7lE+jWzNiSC9wFbIZYJdjdw3EPTEZdbwuqCHBoPw0UwjGgzzXxwj2xGKEYo3vCh1G7/pof1Je3qwvna2hBVacWIeWDavYbTDqzQXlwyL1YuaKCRYoaooXmiTQPTww1lPLoXNnxvLIZZ8XbL553yR2PvPZD/TJMIYYm2G/pugxC9EwmlsUAYZ8rtLeyPxMWG1dULMkbbtDRFCCUTydhpx+H1j6GMWK7StWK4/ocQiGhoke0Vut4ya8MskdkgW6EhkR9ekXb3EDsW2yuazRWzRpIGsorvqUmEcQ+jSwwJQpuNpghq6l1XcQXbT4gX32SMa6ZmTQ4dpgGhMOzfcDjeA5nu5QvScu1lNQ3k4lJCWiaaPLJ//TnpcO+ATbVZI4h75OL5gGf7OOyDBrKhFG0JzZJFv66qVS53KyY02Yj7A+z20C1Ybi/q3raKEBRvuijjgfHuFdiIyIRpJomH8p7BNtfX6RboakOKHbO2zAQS3tKop3umww5U6dcXxMWW0QLzGcgCgYwMO/JQveTZ44traicTskToN4TtNblbM8WeySLZhKCGTUfm0w7SBJcXzMs1swZvnSwFU0EptJY43Lxi3j1Q9YXc/6ogAuGrF/PZPmh774H81XD6ndBaFJNIbHqW3YpSai+UeZjaFViME+X+ATTSLFeEvicZVffak0OkgbK/g2lPkBmTxCzeZBAR1NXuQCO6WiOLFUlbSmwpoSEqtOnEdNxR5hkWK7RfM0skaSSrUtQIJOy0czZZscqV1HoYCWGS4BJD2wtktWXUltGEVKBRoSOTjpXEslxSthek0JKLt29azV43Uph2D6TdA6RUtb099RbCe/9nf7Y/p33Qf1H3MEAX6RcdKOTw1DkUxNBpZH9/7xms5YLu6pLBoGiDaMSsQJmd4fVwgw+NSaT6Go/jVmr/brfZ0izPmesWCxHFaMvMfNxz3B+gX9KutpTQkDRQ1AEmVrDhSBoHrBQ/CQ315TMEKOK86NVmxXKzJJshIgSBxgo9mfHhjumwh9jQXl+jfY8ZaIgUOXvcQh5OjPu964qpAzmfy09WnjPYH5F90EAWKUgo0Ap9HzEtlAglGBacJ5GnEw8P90xWYNGz+OSakwg5tFj0OUxaEja52mXOA6nMrs+FPrUbGoCw2G7p1lsSAQsRC5GSE7HMTIcDh90eup7F+oLQLcgVyEXMWwnngTKN9TU9vC4YmeQyYVqARLdZsF72SEm0QegEYpqI08Dp5oZxtwdVFi9e0ixXqAZi0zoVU7zjiTQxHw4uSCBCsUI+Kwvk/Azkj8jeayB/NZT+6uGMJqdQlkVN+pgiCiYJ1QFLd8ynW2yaoF2iV99mDh1iRlM9XSyZMBwZ727RMSGzw7hWeZ17JeL15+WGsFrV0SziI2hKgZJJp3vS7hUERbYvafslfXGt6SSul63ZYB6QfACbmauovth5uE310ustulyRY0CCEtUFAUoWxv0DdrgFKyy3V8hyyRSVGIW2dnJlhK5MhN2XMO9AJ39/wp861O3ZPlz7mQP5EZRfeUxVUdV3gfuWeT3ZHQvawtWnDNJis+9r53wkhIFWH7DxjtPNDXRb7OqvUpo15XSksUwr0JYMuwfS7T2SlF7amtE10OzKfl0DXY8tNsSLC3Kn5KDkAiE2qAqn+1eMr/8EpgF58W0uL19wSabBGM3IxViElnx8YH74Mcjk4Xttm1QzIvV8Fhc0Vy9oNltO00xOGQkdJSwo04n54XMYjlxcv6T0PTstmM30eQIga+S6KQzf+23K8CVHOaKiLEoLJUCMvjd/to/CPpi/5Ntc6ydCCARRaHum0JE0Oigq68pl3BPMJ3ZffgbFKO2abnNFbBtSmsEyagnJk2eTx8FrvFb3keJEaBMX5JPY0yw3aLcgFaOkTCmJQiKUiWY+AoV2u/XEWnZ6ZFClCQEridP+jnS4g+yqmudxqY/loCrF21+8QJcbcmgwjT62BiHkCdvfeXjebWjXl8xtx5AyKU1kK0gQmE/o8IDMRx8+d87CwyNB5Nk+Dnvvgfw2m+urYDZzb0ZsybGD2PIYcatADZDT6cT+yx9DKbT9ivXVC0psmM01s0QLViam087JFlII4hMezhk1b3AMEHuW60vaxQVWat+ygmlGbKacqjjeqicslwzaULzCTROFbDPH3S3z/gHyiPrMCJysgWuCimIaWV298HKXtuTQUsxoFEIaGe5ew2kCXbLcvoR+SwqREtXjcy3kNGLzQD4daXIiVKEBqNfnGccfjX0wQP5p3z9mXiWSuzW6XJPP8rLnEB2hHHeEww3kiW65pb+44iSCNRERF9ITm5hOD4z7G7CJSEEe5zMJZlLnLLf0qyu61TVoQxsCMQoSC8Fm95SHe2iEuF4z9StmUYJlVAsmM/Oww44PMI9Imf19KqoMwVQpIcLmCllsmUNHCi2mShuEpsxMt69gf4AS6DYvYHlBbnqka5EowIzYjOREGQ7EM2PtfN2eWV0flb33QP6PmgGhQTbXLF68JKt5aCmg+OQJTkdW4w6OO2S1pd1ecQoB6TtEIWghSCKPO4aHVzAfCCRUnNpY6uETGwP0W7rNS0Sa2haYMUlEJtjfMT3cghb662u4fEkSFwvAEqbJ69aHexj2aHZVzvOpuJ6mYiHCYkVYX5G6JVNoQANRobNE2d1STieQlsXlp5TFJYMEkkLRTLGJKEYjRj5WFRRzxtpZv/O5mfHjsfceyG8nun7q9wZoQ3f1Kdtv/Bw5BBKGhuBezoS2zMTjDbz+Atqe7uIS2WxJIUAlUAQyZTww3L/y8LpMDuSabfY39XnLdEv6zQsILZYyOScyySmYpx3j4c4bMK6uCdffIocWKa7iQShEZsa7N1iVCKoyH48w9mg+QNuzuP7EZzRrpAT17iYp6HBg3N1DngmX14TNFTOBORk5Z+9NDoJa8ZrzNDiQH0PqZxB/TPbBAPmngfhxjLcEmsuXbD75lrOtRF04z5w9tVAh33zG7ssfg0bai2v6l59yLFDMyR5aMjYemR7ewPG+qmsAOJB9762U4uWuZn1JbBeoCCJgajRk9LRjeLghn3awXKNX3ySHnlAvtQQIZeb0+gvGh1uv99q5Q4p3Ada2rD/5Bu3FJWOIJBFynmmk0JaZuy9/zHTzGlZr+qtPiP3KB7UbxODUz5wyp/0BhuFRYkgqTfPZPh5774F8tq+C+OkxJRPQfkWzvcL6NbM4W8rq/rYTozy84XT7GnKC5Zr26iUnU7IFSnHljGiJtL/Ddrc+msVypTW6+ZSI4vXkbklcLInRGxZA0JIJ88D4cMvp4QZiB+tPyHGJSXS/KxAppN0t4+7OZX98R+/n9NaBBpYXVzTrLXNoyCKUunePFO5f/Zj97Y8hCKvrl/TLDU3siBpRUZ9aYTAcj5R58nbGGlKfd+TP9nHYew/kr2aszyZy5ikH0MgkAeuXLF5+kxEl5ex1aFyBciWza2vtHmCxRFaXlLgkWSDNhajKqo2kwz13X/7YO6AeZXL9vUtJdVi5UJqedrmmiJBLYZ4zpMRCjeH+htPda2h7dPspurwgmZIKGEIXlSYPnO7fMB/31VNWr+8xgIfhsy863eYCWSyxGAltQ86JiFFO98jkYfzFy2/QdEuUgEqgpEIxiE3Lfr/3zHieySVTLD/vjz8ye++B/B81Cb4fFiGuNtjqklnbSibxMouYZ5TLePR9pSphc4Eu1khoCSG6FE+ekelAOe1gqAB7Kxrwf9T9a9NjsSULFBSVSFD1THE6EUZvjGjXL+g2V+SmhdBgGWyeiDYxH+69zbDMVVC+JugQVNQnQrYdzWoNXccs4lMygvr+fXqA/Zc+oWKzRdsFw1hIGTRGUCVboeSZMg+VoVbVO5+B/FHZBw7k6r/Mw15drtHtJ6TQITWpc27qF8tMxx2H21cgQn/5knZ9gWmDBt/BSp5gOjAf7l3Fo3rKx3eTOuhNA9ItkK536qUoIbRoUMwSTEfkcA/TzGLzgv7ihc9ODo1PvygzgYlxf8O8v3XPn72U9rjvN/GJkO2C/uISWSyZz00PMSAYcT6S7z73wW6LNd1qi4XG+d8ij+duuep3W3oEMvYYwD/bR2DvPZC/mux6N/EldYypUcrs6hzbT6FbYwbFClYHfQPMw5HjzRdQMsuLFyy2l2Spc1Ile6Y6DcynB/LxodZd39qTnxnYEgjtitD1ZPVwOUhERSiSkHTC9jdwOtH0G5rlmkGVIoGgDUFAGJmPN9jxBoqXoDyC9wFyZsGFE5qexcUVYbkkCcznhBWFzmbs7rXXk5uexeULdLmiNA0TBVPXCpM0uufPE8HH09XzebaPxd57IP+Z9hgdGmrJ9acvvkGzunwaXqoeXheEMg/MD29gHmG1ZbG9epzjaJYRZqJM5PHAWD2yE0/8vYTzqhCJZyAHQBX1mYuYGsEmysMbOB4gdGi/ZGwisyhNaIkqqEww7eB46/OOa1bcKoiLBQoRpEXXW5rVmhID2YexAoVmnrD7O8rxBLGnu7iidAsmhRxdPSCoEfNEerhxZRIr9f2fYfwx2YcN5OqUFYhqoEq7ecHy8oVj/JxxDq6bRcnkwUXyiB2rzRZ3WYZIQatWdZ4HjocHyAkrTgV9fEEECIS4JDQdRR3IYt4mSDSCZNL+lnLcgwjNaklcL8m1NVIVHwebB/LxFk4+pwnUiSceOJPxGc0s1nTrNaFt6gjWgkpB04wdjszDDNLA5oLStQxWsEZAjRiMUGbGu6opVjKi+uyPPzL7sIF8NjNivS+b9SXLi2sPvxXfH6uPW1XxMJNxBA30yyUaFQ3ewxvUCMFI88DpsIN5cqG6yut2R1hF8rSF2FACDgyTKg5gNGquBDKcAKFbr+mvLrztMdeMtCQCk++R93eQfZyqA9nfokikEKDraZdLmr7D4/JCUOgEwjRzOpwY5wLrDXG9Zg4uj5BJXpzLE9P9LeWwc4YX+FD1t6/hs33Q9uED2ZzUYQSQBlms6S6umbTFRAhMKBlUaG1mcbyF3R1oi7YrtOl9DrJUgXdmZD4gx3sYDz5WhuL4FffGoD6Gpl2izZaikUJCpI6jkYykI/Po85dYrmnWn5BCzwmv7TbFCCUxHu+Yzx7ZCrn6ymgQMC+xNR1xc412a5BYCSqFpo2YZMaHL7D959Cvydu/SolLKIli4kqcVrxXetxBPngS7+0C+bN98PbhAxkopkAPzQJZOstp1J6M0DBhZYAQaPNEePMjHj77EWhHjj1Nt/L6ruEu1yZ0OhKPD7C7RbILvFvAWxnxES2zFhaba5abb3stWhJNDGh25lYjA8f9G9Lw4KNf+xfkbsMYG1QjTTJiyRz3N0zDAcxIZQZ1Sd9QZiqFBKRh8cm3CYstRkMqmVwmLBglZIa77xN234d2ybT+G9Cs6YIQYkeWjiCQT/fM4x1pqgPnCI/SCc/24dtHAeRz3qagSNMSl2vieuu6WkLVx/J9sJSRMh1hHglNg7YdEnxIulHAMlImpv0dZedkC8rkUXXtGjqH63G1piy9fVAbpQi1Wd+wMnE63nHc30LTEJaXSNtjwZkfQZUgBdKJ6fgA05FABnKtX7u7NAM0EvoV2i7IEpHQ+HbBEmKJaX+DHe8gBNaffIPQLcnZsGKUNBO1YHlgOtwRba7v8dwB9THZBw/kInjNmHpfxgZZrWkvrlz4zv0pSEHU+36m8UA5PkATCF2PhaowaS7LI5Y57e443L+BPEKZKWV61Ls2zAknqzVsLphigOBkjaL+fmYzx/09h90NtJFue0Xoe+Tx9wNBDNLIsLvFjg+IZJTsdV58hcoGoEi3coBK9PqyuEhBkMS4u2fa7UCMq09f0i6XJBPE/PUbLZAHTvc3LqNbcp3Q+Gwfi33QQDbxM1B1rvTZe9GviRcvmEJLkfM844JopsjMdHpgvnvtZ9/3zOLzjA3PJUWMNBw47W4gHVGZEbJ7/toNJQh0S2xzTYotZ2gUCYhAtIyNe/LhFsSz6U2/rMmzgqjSCMQyMe7ekI53UGbXvqZUz+5ZbFDoFjSLNRY7igaXIrBEIxmdB/LuzkF6saVZbcjaeX69zMSQERkZ71975votEf5n+zjsgwYyuIiA4JMTKEKxAO2CcPmS3Cwxbbw8JBkjuWb18MDp9WfOdFosmES8NCSevW4Uz/Qe7uB05xlm9XDXGx9qO2Ps4PITZLkhm+tTZgJiRovRpJGyv4VpJKyv6FcbxDzk9UXD6Ejkwx15fwN58DGsNUR3n1kpHLGlWV2g3ZosHoT73KiZpWbyw63TSruGfnuFtCsAWskEmYk6M+9u4P5NrVs/e+SPyT5wIFP9aGVgVVYUzYLu6pvo8oISOjREhAw2gyTKsGN49SNIE3G1YdZIkeDUS3NZnlaMeX/HdPcF2EioulpI8My1KSYd/dU3WW5f+HQLgn+O7EDuyoTtXsHuAV1tWW2vCI0LBBge+kYx0mnPdHBiiJpnv6mlKA3i5yQN3eqCZrmhVEH7EIAysVAYbl7DfgdBWF5/gi6vKChNAMpI0EQ5PjC9/gLG0+MAuWf7OOwDB7L5DVm5w0r1Ys2C9uqbhNW1h5ihQaWAzU7EmI+k2y884bXcuB6WNog2UKjD3Qrp+MD+zXl2sncMeZnLR7QUbVlcfpP15ScIkSARKYLkQiyFJg+U+y8Z7m6hWbDaXNC0PRIrF9oKUcCmk1MoxwOWJqCQzXwom+B6YRJplxua5RY7h+9RyGmkJTHevWE67SEI7YtvIMtLknltPOcRlRkb95xuvoTp6LXs52TXR2MfNJA9QH07+1pPJ/bE9TX95Sck6dzbmhHEa7Mxj8TxAcYTulhhTe/NBvj4FjGv8dp4dMLG5CqU/p6CmY92E+2J/aXrd8WFd0FVXhZAtBk7vmE83ntDxHJNWF+Q1FVMDLBckDK7qua4d9XP+jOR86m5ZpguVki7qNMkagMHRrRMOe2ZjpXwsbkiLy+ZpNJGLaMUGimc7t5Qhn09n2eP/LHYBw3kM2Cq24I6ZYHQQb9l8/LbTDSk4s9tQyBgNHmmLwPs7pFuSVic950+QlUBzS5vK9MBhgNSElrDXUwIEhDtSNYRui3abZizEVSI0SWEIjM63pGnPZYTbLa0ly8ZTJhxSmlOiUjh9PCG+XCPqM9I1hAIKlhOqCo5G/RLn+5o/pxcMiEG1DK9FvZ3r71Ns1+SF1fkpveJksG7pVZdw+HuDcP+3rnpvDtz+qvHs3049kEDGXwcKegTDRp8H9sskW5Njj1FfX5wQAjF2xXn/S3TaUfol3SrNRnFarlKRGljIOT5sTdZceYVb3lKw6macXWJrF9SYgeSsSDM6i2NjZ2YT3fMww66jqlbMzctOSimEESQPPtEyMM9Nh09CedtHs7IFJDQQNMzEUnnmcui5GKUPBFl5nT/BpkH19/eXkO/pGhANLjUUMlYHkjHB2Q6VsWQZ/sY7IMGspggpo5gkVrjrVnlbkWzvoSFD1wTdSaTGoSSmE/3nI57Yr9gsbmgSMAkkMUXhSaqh7z7e597bK5zfQ7mcyneqaQNur5Gtp+SY0OxmawwhYCRaBkY9zcMx1voe/LygtwtyMH7hVUFtYRNB8b9PXk6VgplxkomqO+V0QDdghI7p4RKlc0FcpmIIXG4+RI7HSE2dNef1qmRvg1QU+97tolxf+s9zFU44dk+fPuggQyCmHOfCVDUy0MmArGnWV/QbC5IGl303QQ1IYhgNjGlEUJgudk4oeOsymXmDRYlMZ92nGqNVovrXFsxrCQEXMmj32Cbl0wSyGUgizGHiEmhYSTtb0gPb2qN+xJt+toBZQSgIRPTwHy8x+aTM69KrsAr5Fx8n98skX6DNT1ZI2hEJIIUombm/R22vwdg+eJTdLEiiVLqeRsFJDmQxz2U9BPh9HNo/WHaBw/k82Fi3tjgW1gHzWpLf/2CSQJz8f2tmBKCotEolihWWKyWroWFURQyhVy8c8imgWF3762PuF62YAi5KssqtCvy8iU5thgzSYxJI6I14XV6oOxuIBvSXSKx909thWCFVgqtjaTjA2U6VQB7gsrPSBzIsaPbvkQXa3KIFIloiPVzTDR5IN3fQM70l9eE5ZKsihmoVVJMKIyHWxiqAsqzfRT2gQPZzew8M9EeM76g0C9YXlwx8xbV0eopayHZzDRNNIueftH7AlDpmrkkQg17x+OeMhxr33JlkgXfKAcEYoeuLomLJU30MD+Loio05sqactzDOKPNkhhagjkbTSk0WtAyMexrJ1RJKFWDF9DgYT/asr76hGa5pWiLoQQNiEIuI8tY68njQFwuaVZLtGkAdSCLR+jD4Z583Lmi6J9hz175w7GPAsgZSJV15ZnsOhoitrTrTZ2uJKhGQCklk2wm5Zk5TdC2LJZLCIo2zptOJROCEMRI08A8Hh+34qpe/jkL5hFawuKCfrmmbyOiQqraW40VmjQTxiMMI6o9QRq0OBVUyd7llAaG/T3Tce+9yWL+16l0zowrhi4vXhAXG4o2lYSiIIWUBpaNMt29oQwnaCJN3xO6FhVFTT0XqMZ43DEfHyDPPxFOP4fWH6Z9+EB2R0MgEhECPnUQCxCW5M2nsNwiqphmcpwpJDQbNifSPPkAtO1fYdYlTYHWMo3MBGZEEgw75OENlOzjY87pcauzlLQnbr5F2H7KEJcIgdWckCIM2hG1EPZfwrhDupbQ9nXcTCBWfb8sBZv26O4VTPtHCmWR4Hv2kkEU3V4QuxVKSxYlBVzZpCRaG8jHNx49WEu3+Rape+kLVH6g00STEzFNLqA/HRCcgIJU5c5iiJ1r4Y/Lokc59jQ36hnm75d92EAWMPHEVGuKkyfnOr0hQlxRLr7F4sW3UXVhvNImJBqdRkiZPI2wuiJf/XUmWaFTorVEHwuUASsj5XhPfv0ZTJOH8I93cd2US0e8+Dl0+y0e6LCsbHNBinIKPVGMfPN9ON4S10ua5QoJHWqBMFdaS6O0TISHL+D0QBFjAiaNlGw+hC0EWG/ollsCDUWUWf2PuFBgfMDGW8rpCKlhff03GJtPMRWC3bHUmTCPLMS1t8vhFmX09k7xWdQUnzup5jy2Us/X7AnIVn/2DOb3xz5oID96isf/1+SXPBZfCf2KxfaSJJGsigStbYRCyYkyzxAb2tUWaXtmq9xmzBNOlrB0ooz72glFnb1cE1GCbzxDg7YLSrPwmrSZy+MK5DyR5xNpHmgahRAYi5DE15siBVUIllyKd3LOdWWOE1QIdZqFaaBZb8hNT5JAEfFWTsEbLnKle6YTLNfkzqc5huWKZIWSJgIz969/zHS6h7OCSmV5qafTHzuj3gWrX/Gv+Olnew/sgwYynL3y2TnWkeFSh3iL0i5WbK5fOp9aIoRAwecf5XkmDQOEyHKzpVmsGFGKOhClArnMJ8bTPYwPqBjC/NQGWIGsIdAslmi39JIPVWaXglki54lxODi1MkYmiSRVSiMUyagagcJpd+cTMdJIrJnrKIJqbWkMgf7yirJc+jzk2iUlqj5rOQ2cdq/h9ABtC4stY+iZmwUZnzzZhsJpV6mjZXISy5mE8s6QtwrUupN4fEzKI/Cf7f2wDxzITzfbk6+oYgIKiBK6BcvLTyj9hlkbCt55hBhlnkjHA+REWK/pLq6YYkc6a3hhNJbQfGI83lD2r5FyrHzop8gaBAmRdnVJrI0aWd3zY7MrXpI5He5J0x5pWnK3Ym4iKYJJcc1McwLK+HDj++THNB1QWdxFA83lNba9JjddfVxRDSiFYCPD3RfedaVKd/0tpnbNvgSKKn0Drc6EcmI+3sJ8BNIjmwx9Cmze9bp10XqW+nov7QMHstu7QV6gEMiCs7RCS9xcEbcvmKUluftyT5kn0mEPxyN0Hcura3K7ZFb32kEKDT73eDresL/7Apt3qM1P4fv5vSXQrS9pt59As6Coksw9XQwus3va3zEc7mmXC3R9yRwjczBMi2tq24xMJ4aH13C6r91atdbrUigUArK5ILz4BGsXmKhPYBTv/WolMe9eMd5/DqJcfPtvwPqaXQmYCm0sSD7SysCwe0063YNNnlfgHGWcj3Mdu/772d5b+wiA7H74MfqrHjcLzubSBhZb+qtvksKCVHzkqggEMvn0QL6/AREWl9eUxYZJoncyqdBIoQ9GHvYc7r7Ehl0lUqgfcm7dUFhd0my/Ad0aQksxI4j3HAdLTId75v0t682WuLlmkoYkiihoSUQyDYnT/Rvfv5oreIJjzKvOCt2a9uqbSLtwF3nWqTZoQyAf75nuPgcrbF5+i259RdHWr1WZsPlIyCOnu1fedVXmuk+22hRC3a+8HVWfvzu766cr/mw/e/uggewA/iqQHVhFqJI4DbRr2stvkMOCUgIxtq4EIgXGA8fdHVBoN1vKYsMsDQWncjZidAFsPjLubmDc1SmNteURxYp4A0W/QVcvsHblCwhKUKd6kr3kY8MeNhtkecHoOXbX4M4z0TK9GtPhnnTavQPkYmBFvPU69oTtS2gXCE4TPV+BJigy7sm7V074WKzRfo12SwxD8kgkoWVkfHhDOe+T8dR0MVcwgcplf4Ts+So/g/h9tA8ayHzltnr7+8e9K5WjvLwmhwWird+oVmjVYHhg2N+BgPYL4uaSUQLl3GhhhuRMsOwjV4anqRCY0x9BkCJAS1y/9JZGczExEbCSUSvEktDpANF1xXJoMWkRAqFKDKkl0rinzA5kV/IAe9QeU0wXtOtPCc3StwnqkYGo91S3Wlw6aHISSwiBpmn82tSRMVEMmw6+ME2nR4F8HnXC3gLrozeuUcg5u/gM6PfGPnAgP91Q5y2dvqMpJz6yIS5gcYl2a5qmJ80ZzGjEYKgN+QK0Pf3FS2bxyYmiAUqhzBMthqbJpzWU4q+LC/Fp/aIE2s0nxOUFcxH/fXMGWKPQByMkbx/UxRptV5i07rlFCAolDeTpQB52kE6Ukrz/OFA9fETCkm79CbHfIOoA9yx5ZM5GH4V5/8aBDMSgdeSrRy+KEdWINlOGBxg94eeX7Glszfm6PprV6/kM4vfOPnAg884NJTxVhNxqwKkNYX1Nt7muAvPByQ95pmX2Ht7hBG1P6FYQe0qInjOujCcphTIcKMc7mAf3ymZV5N2HoaIdtFuaxQXErvY4q3t2UYIlwuxtis1yQ2xXGJ1n2ouR0uxdVcVnJ3M6PHZAnfGkCKItsd3QrS5JoWWu2+hkxlwM8uSf8/gAeaJrIiJeHy/m9egARJsY7r6ENIBCKU4z+7PGyfgW+lzze7b3xT4CIL9l7yRY3ftgAtLQbK5ZbF9QigvnqSjkmYaZMh0Zdw8+VHy59VpwiMxQZx8rWgplqNI/46EyvHnLa53nGW9pV5do25PwUaoSovOdS4LJvV+33tIsNhgtJq70CUYInmCbDnfk0x4xV9U09//eTEGAuGJx8QmldQ1rF+nzrogoBZ32/lnngWXX1Dq0UIi+qFCIZeZw84Wfjxo5zdUb1/N5tg/GPmggP6W6qiv2B6uP9HKKYL6PXKzpVhdkq82BwcXvQsmk04nj/Q4IdP2KZrEiocxAic4GUzFsPjLvX8N4DzqB5sdGQ/9voMQF7eoC7RZkUa8na3DlSwplOkCe6Fcrmn7JXJRk/nkkKrFRGi2k/R3p+IAWZ3j5SblqCAiElm77gtRfMIvvxSUIGpU2GNFG1+Ue94RFD6EhqR8mrjfayMywf+MEFDzCMEBUanWtrozP9t7bBw1knvzuV5i/VskUtSNBAzQLmuUGNGKimNahbSWTTwPDbg+p0HYr+uWaGSOrUIIgdc6wlol0uCGdboEBI1HOsbzhoWvsaVYbYr8gayRJIEvVprZMmY+QRqRvaXufHDGVmtISQ6UQbGbe35EOD3V6ogP5kRpqvmiE9RVpccksgWK1/0tBbKZh4vjwhnR8gK6D0JC1JYXOa8+WiCRs2jMc7iCPVBZopWn6VX0ipJz3LufvnwH+PtkHDeR6Wz8Vn96JBs+Ufxe5IzZ0qzVtv0CCT2oQVYJAmWem0wDj7EywzcbbIlXIYmTLqBhBZubhnuF0RylnbegzpRGyuUC9LlY0iyXE6F65tlmaGCWNlNmVSfr1mtg5dTKLUSgYGckJG0/OOpuGWu5yUDnl072yLrfo+gprGnJxIIsYOQ1EyRx2d5yOe2gbiC1ZG0povNxlGSWhNrPf3cF4ItQea1HqlS3v0DEf/fOzp37v7KMA8lN4++5PjOID3CRgsUWWK7rlEo3xkW/t92zB5gTTDE1Hv1z5LOMgzBSSuXdXEml8YBzuyXb0ffLZS6knxgoB+p7YL7DYkCuh04UNCla8DxqB5WbDcrtF2wZCbWNyXhpNcTAznDyjbB5WSz0vVGC1pdm+IPRLRM0PMSxPNJIZTzvG4Qgxus5XaCjaAIKUjJSZoIXj4eGx3zrV9yolPWlf/8R4mfP3z2B+X+yDBrJ62qdOLK5uUZ0g0dB4h/Lj3tJguWF+8S122oKEqtBh9EzE0ys43kHbEpYbtN9SpEOswYqrVionwvyaMtxgaSQzkaouCWZoFhqL0F5z2PxnmC5Yp5E2J1QEycCYMOeJIus1uliCNITi3dQ+ujURZGA4vsLSHTCQyDXIjYg42YTYsN5cos0lSa8xgyBHrFGm0NDPBza7LyALU3uNaKQxb5IgeMKvKUbe3dNMHvK3ObmKinQYDWYKVlCbUZwB5lf67Tj72X7W9kEDWaBK5lCz035GAjTWEoju6c57y8WK6fpb7LRzfrKBUOhlQvefM+1eQ4joYkO7viZbh9C5sogKwQba9IY83JCnI6VMZGYKLpUbs9CmBpprDhd/HW3WXJSJrmSCKKGATYV5SswlQ7/AmhazAEldDEEUmBGODMcvsXwHMnrobYIVF9w7l4DWmy3ES2auawC8w9rIIJFNGekePoMEafkNJDS0NnqnU1T/TBns4JK/TEcaiituSsT8X5WHPfshLjootfD2bO+HfdBAhrcdw1N3zk86iwDSQugJ/YbYb7w/GakdShmbT0zDEXKm65fEfk0Rl+sRp2eh6i88HQ/k456GQsQXA2q4axhoQ7e6Ii4vSdJjGhE1QqwaYPt7ynCApkU315RuzSwtGc8+qxjBZpgH0rCDM63ynU2EAg1x+QlxcUmSBgmtc1XM/DPLTDrcgiSWmxWmkSQNyTxANxJBZiwfSftXkI+g3ujxtAt22d7Hi/rI6nq298k+aCCfbzbDi8dn1YrzURCKK+qBNBB6+uUli/UVSVxhAwFqz/Fp/0CeJliu6TeXLgpfJzSa5ZrNDQyHPdPuHrVCgKfOIfWkFhJZbV/Qra+Z1KVrTY0Y8HbG3S358OATFi8+QRYXzNq6Umbtugq4oMFp51TLSPZ2kLOmlgC0sPmUfvOCHFoktpQ66VEUjMzD4QZsZnOxRZqerB0JVx3Fks+Eygce7j6vEkMJK5NfwKoTfqaGPh3PQH7f7IMGMu+A2QHtmd8nUBdvzcekg7CgW12x2L4kSVcBhvcMpyPj/p7peIRuSb/9BJolpvooEKAiiCjpeCQ/3MA8OXPSiu87tabYJNCvr2g2LxmDT3s0KWhw/el8fMAO96BKe/ESWV0who4kAlIIkmmYkfnIcP+acnog2oRIrSeb62tDD90L2otPKd0CC073lPPoHJk5DncwH1lu14TlhjksPBoRQDJBJqQc2d99DqdbsBMwY3LWJK0NIW9lI57t/bOP5K/iIW2Vl38Es9/14an9T3va1SWLi5feCaUNRQwlEcvAfHxg2O8gNHTbl4QaXrtz8lSTiCBpgv0dTIMnzMwzuyKGiWtQa7um2bxk7i/r2FYvQkVNMB3rYPKMbq+Q9QVzsyCFQCFXZc1EKAPD7g3z8d6Hk3vR7HHnYNKBbuguPsGWPr9KxCdqgIEkUjmSxx0se7rNJblZU2JLEVAtqI1ERsb9a6bjG8hHVHJlrvn5UMULHj3yc3vye2cfCZC/amcf7b3/j//SAP2Kbr0lx5YSA6aGiqtmlungnVDFaFaXxMWGTCTbmYzhGfEWQ4cHGI4VWw4tE0H0TKQMNMsrdPUJObQgmVxmF7rLE9PDLZyONN2C2K+wpsOqYqZZqaoihenwwHzaOb+7FD8H8fDWgo941YsLZLVkRryp4gw2KahmDoc9hEi/uaK0K2g6DAhBEQqNZMr44DOapwOi/hnqFazncwbzs72P9hH+Zd4Otp/MM7oKbe+jVGJDqWL0qoVOE5JO3gdcCvRrQr9yVlbty8UMRenVaKcjTEPt3X0ihbg6n1KKEPotuvoEix1oIde2RC0TaXdHOR2R2CBtj8UO01D1pD2gDZJJ04E8Hr2xoVRBA/H3M3F6J6sVtlgwA0GbJyBTiBGG4QBAu7ogxyXE1s87eGmp1Yymkw+sm08g5bFx4unTVAbdORx4tvfKPnwg17vN+4/8Dqv+sRIongBt6moa7XLN8uKKXKcaihhBDSkjNu5gPELT0m8umbWrYDasZIRMsASzs66evBaUWulVEd9Pd2us21I0OhzEReejQhqO3j5ZJjabFbFOTjRRsuF1a3GB/NP+3rWqMR8eVxNehUyRGZY9Yb0h9kvMBCsQJBA0oECeZhgnuu2lD4ET7wCzIqgEghktmdPDDeTJ51xV//s2bh+XR+On0nCe7WdnHzSQpe7VnDF4vuXOYK5Aru2G9UGnay6XLC+vSeYA9Ocmgk3YuKMc9xAj/eYS61ZkidULmu+V8+hjSacBalGoiPjURDzdpKLQLaG/oGjjdM66xQwKNg+kYQ9lZLnd0C5WdSxM9NC5ZtSDwGl3TxoPIEbKhVxqMk8yRIO+pbu8pF2savnJQ+yo6qy1lLFxhvUFtAuKubJJKULQBi1GLJnTwx2kEdJMEGe9CY/SZB4FwFnt+vxneLb3wD5oIPMWdB3QUlv8q9CAVeDVMkoyHCjNghK9YcFvTJe4CWTS8Zb5dA8YsVsQ19ckbZDQEENwfjKJkkdKHhDNPguqyv54XFAV3ZueuH6Bdius0jSTgZUE6Uge63iYpqXp16Ct15xD474uZ2QeKeOe8igx5J7Q1yQvVYHSbj+hhB4TF0RwfoyPkbWUfEFrG8JiQdGISXQ6qfgQdNLgnVnDA5BQ8ehDMb+Wb3vkx++ePfL7Yh88kN++l3xesh/+M6vVZH9aMZfMoVkg3QZid4ZdFcrLpOMN4+HOxekXS+LmBRMRUyUEQcmoZKyMpDSAnBsaajhtZ7dVIHTE7UviYv0Y6PunyUgZSae9e/WmpVtsILT++TS63E5JSJ4o4548PHjmWvCmCXl6RRAWl59Cs8CkqQPba4bbhDIlyAWaSLdZQ2wwGrIFTKJ7X3NN7HK4f5ThVQr6OD7mbfPr+gzk98c+fCCfw763HzDX0zrHgufbraAUaSAsiYtrmm5TR6VoFRAA5h3T8RbyCfqOsLxglkg28WRX1anOZSbnE2Kj60JDTTKd2U8uxRtWV4R+Uwep+548aKHRkXE4MJ8m0I52eQmhJ511t4sR7FxPrsokaSQ8hh/naEQo1qHLb6DdJSW0lKBkCibO8EppIs0jBGFxsUFjB9J4x7YaGgpNyASdGI+3UAawCWqziG893PxaPsZB9dFn+1nbhw/kr3oFo95gdUMqTln0h50/TFjSrV6yWF06BVNdkkclExlcinbcQduhywuIC1fXKLX1TzLZJvfI+fQIZMw1vMzqexORxQVxsXb1kNrwGyTTysw0HDidBlcwWWyRZkG2pyx5EM+mh3QiH29hOvqki8dN69k39hAvaZfXWOwpqmQpZDNUlJIT83QCS/SbFbHtMWt8QJwYopk2ZhpNHPevq4rJ6KL15jzyp2tLPbdnEL9P9mEDWZyI8Xbixd72GrW++zh0TaPL4+qCfvmC1erKPbYJxRQrPqt4HneMhwdoIu1yQ7dce7hact2TZuY8k9KApSOUqkB5DqtxKqcRkW5Ns9igsUXV9+SQUSbmaWQYEhBplj5l0STWZJXQUOgkE8vIfLjHTq7gKZXuAupZal0wl57F5gXa9BCcsVbqSNZSEuN4dP2u1cKBTPS+bDGKzagkhInd/RuX/ilzJYX4tX0mgLzf9mED+Qzb2uj+6IwfnUXNXZ8ZjVBLLy30l/SL7WOWN5uR80yjhTwdGY47iIFmuaFbbarU7Dm5lEhlpuQR8rnxv77fYyivFIlIsyL2a0LTP+59rSSwiTzPzCkDAelWhHbpnluEoEpUo5VMtIl0fGAa9v67HnnX9wsYHWNqaFbXSLOA6DOeixhSa8XzWfK2a9DGed0SA6aZlEeKTZQ8cNjfMI37OkLmDOSvovi5eeJ9sw8cyE6+8P8/8QbPobRXg7R6N4jgQ8UlwuqSsP2UrCtmDG0TMWRinsn7I3l/gGy0/YqwuuIQluR2QdKClURbMtPhnuF476FnLogU32cLLl5vkRal236D0+KbnMqCRnpabWgwetvRHH8ApxtoOqRdkpsFSZUsyevEZSbYTDrcYKdbgh2RMtc5jQ3kSChCpwqba47bTxgoqO1RFYyGNhfS61cwAHLp43MWHak2YiQTCB0NiT7tyYcbKGPVzG5rZFPO62VdPOv/n+29sA8fyDwxnTxD7V7EK62CEYiiRDOiZQKFooHcbmB5hbUbsga09YRPzBmdRux4gikh3QJdbBnCirnpmdVD+d4K82HHcLj3NsjsIbfoDFo1NktAs6CrlwyrbzGyJNLSaCSK0ZU9uv8+HN64mN56i/RrUggkKZhkzGaiJJj2yLQDOyGWna5hgpgDudEIy0umq28yBQic0KBkC3Qlw90tHArYmu7yE/JyQcI8eaau492SWdqJ6eFVHe4mTHiEQBUUkDNd9dkZv1f2gQP5L2cSItotkNg46K0Q1MXb07CH0x6aQN93hKYjm5A5EzagTEef6DAPj0PCS7ZHoXzMQALEjnZ5gbYdyTK5eFuH2Mx0vCcPB5DM9vqKuNp4fTt0PnZGQg08jFwmKBMiviCZZURdbshMoF2z2n5KbLdIWPg5MqEyITYwHG7BEsvVBdqskdB7g0doKDm7prbN7O9qwqtMKFOddeVm4tn/J97Xs70P9vUGctMQFiusEjBK8fA4amE83MP+HqKwXC1plyt8WnEAdRJFGY9M969gOIBIpU7WyLpGnabO715cXBP7JbMVn9Io3pOVjg+Pc4rl8pJmuSaJK16a1LE1AhKsZsm9C0opXh5S74MuKLRL1ttvELotRTuPSWwk6ITZkd39K98nby5pF5dI7CkEQoyU4tlppThVc9hDGdByBrKfmNVds4P5Gcjvi32tgayxQxcbsjbkIg5kywQy0/Ge48MbKDNhVTum1Nv7EfHOonSkPHxOOd3XZol3E0AiuIZIs6K/+AbNcvOoqFnEaIIR8uBytOMeFj2yWDNrx0xXvb+LAKgW5vnoHG9LDqMn1+9aX7qgW36CNhfMpa+LyoTICZEDh/0r8nSExYpu/ZISlqQ6eQN8cmSjhTLtycM9pCN6rpOfT01+evrr2X629rUGMk2H9t6q6EoizpYKJOzc0jgdYdHTbS6w0NastwM5lgE9vmY+3EGV11EN1YMlRF0el9DTbj6hWW4fNbWLGEELLTPj4Y7h9AAqyHIL3ZqJluT6I5gUJBTm6UCZ9j6l0TKqvi8vYl6jtgb6K0J7RWaBAUEnhBPCkel05y2REllcfIrFBaVOnlR17e5AomFi3L12xZA8eAa70lypIH7Mez3be2FfcyA3hH7pWlnUbiGh9gJPjKc9HPc+SmZ9QYm9M8MMgk10nNDxhul4g9mIiSfYsFxv/pr0kg4WL4j9FoKHyyoCtS49nnbM4x4w2vUF7fqSIm31qAWpkjxp3pPSoRJQzEFe3aSGymhr1oTlNaXZgkai+l5cmbH5QBoeICUW22uk8QkUxfAhbxglz7Ra2N9W6R+bH9/rHGs8B9Tvn329gRwapFtgErydLwTPTWkNMdOJefAxqLrYUEJHxgeGBxtpZSSke9J4Ry4DkL3klVMlVLiEfaaF5hJpXABPNCCA5YSSydOBkk4AtOst3eoC0yrbYwUhIcyUfKRkZ2idG/+rercvGibQLImLK+gvkNAQtLiUkfhM5DzuYXZdMmLnA9mLEdTrzTmNRM3s7155NGLnRcPtrQj72d4j+6iA7MqRdXD4V+40f+y8j60WI9L61ERqJjYbpJKICvM0MI0+mtTaBXGxpdAiqj4ojQHKnjTdkeYHzCanpaiAet8w4LRQ6+gXVzT9llLq4DfxeU0lT+RhD2mmWV8gsWWqJJYghUYzgYkyHRyI5Dr0TcnZk2zAo3pIf/GSEjckC1gu1dviggbHOx9s3jV0iyXZnGd+Fu1rmoaSRvJ88G4odZ2wZEYpGSlGACxn5Py+z/Yzt48KyLybavoJMPujb1kISNNBiBXIPi3CrBCkkObBGVEVyM1ig2lbRQwSyoTYgXm6Yzq9gTL6YhEEKJRHjnIE62iWl7SLTd2P+7A0EyNQXJlkOEFs0dgisfESedXw0jJh6eTgsuRJMKoW9rnbKwhIoFldUeKGjOt3ac2ya5mYDze+7xVjsd5AeCpxmUBoAlYmtExPDC+pIbwVn+1sBS3eTPFs74d9dEB+1/4MEXXB5yZ3K0K7cq+pDRIiISiBjKTBAWaZdrEi9ivQnmJKMVf8EElMxxum3edIPhL1fHOLh+DUyFQ76DbQbWppKYAqpWQaNcpxRzkdIRX65Zp2uXFPCc6vLgkt3tJIcpF5QdA6TcPI7pk1IO0a+gtMOpqmfdxHB0tM+1vKaQ8lsbq4Qro1RSMaPelV6iImZfAS3HzylkkJqPoUR6z4WvVs74195ECupK+3bjo7h9kIaCQsvKnBpMGIUBNRajOkgXx6gDQR+wVNv0JC75lo1NmhmknjPWn/BZIOT9xkdcaZWKnNQw20K7TbUMQJKC7UV4hSSIcH0nAChOX6gtD7aFd3toZaJpREPvlECE+oQZCIIi4qX+dc0a6IyxcQOjS0ThZBiGTS4Y552HsluAI5oViIXh9+BPLEcX+Ljedz8n5r1xR9Zna9b/bRA/l8w3l7YeVhP+4pI9JvaJYXtQyjXoohE/JAUwbKcA/HHRqUtl8h7YosDSV0nrgCNA/I6Y3TGmuHhrOyfOqhv7FC02P9mhwbZnH9MNFCJMGwo4wjEAirLSV2TKLkEP15AtEy5bTDxgPK7BltOctulwrY6EPQt58gcVELaj4JstGCzCfS6eAXZrGltGsmIskgVxGBIIXIxLi/JY8Hp6DWr3MG22vPz2h+X+zjBzLnpOv5RnTzxFeAbkW7ugDtKCi5GGLeOtgyYcMD0+4OgH6xJvYbsnSU0PqcYVEamwnjXe3jTZjhNEuzp6FnphA6rF1Rmp6s6praCsFmYhrIw+BaQP0K2mUdg+pRghgEy+TTzvfJPob98QSdIKIeVYQly+2nxG5JKsW1qcWIWmhIjMe9t0/FHrotFnrmAoagQV0gX2bSsPM2TcvnUXVvhTfPIH6f7OsB5LOd3fLZJKDtkm514W2G4nK0QiGS6SRThh3Hhxswo1ltWCydGJKIZFNXurRMOd47VTPPVeHSu4ZVjFAlctGIdQu067EYnsa1lkxjhTQMMEwQWtrVBaFbkjgPSQcphTQcKOPRu5PO9eQqIKAEKD7nqt9c0/ZL5pRAwSQjlmnEOO4efISsRJrl1mV/TeEsZ2Qz0RI2nyBNUBK5zmh2AD+3Mb5v9rUB8mNrIzzdjASkWRD7tXunyrkWjCiFRgo2HlxkwDIsVzTLLUVbZqqShwihzHC6x4Y9lIzUmm6pi4J7f59wSLNA2h5CIGcHl9pMK9klcocTaKDfXKL96vF9KIaURBlPlLkC+Ry2YyCu3On78QgLFyqYC7VU5dzsINlnXNUwPi4uaPq1z51SrU/11kkto3OtS6Jk35P7UKnnfPX7Zh8BkH/yljonuETqwDPM/w01jy2+nzSBEmhWl5Srb7BHkahkMWZVUKOTTJsHn52sgWnzkiH0ZBPPPKOE4qF1Pr0B2zkxRAKqLUrADErJoD3d4hsEXaBAJw1xFrScCHrLPHxOGd+AQFxdQ3dJbrZI6AhWUGZinF1T7JyEOg+iE6squvXkm468/jbH7q8irFgX78XOTJT0gM73YHBx+S1GWqbYUlplximZrUBkYhpvwbxmLJZr08a7ckPP9rO3DxzIZx/7k2B+etx7dVyLmQpisCJQvA4r/Za8fckQWohKUSEH9YwyCZ2OsLsFgXl1Rek33pkkATElkmjSnjLcQrqvyhqgnPWpvUsaXRCba0R6pAitBJoiRBtRvcfSDUx33hTRb7F2wyRLjEgUCJpQnZiOd3B88MkTQt39exeUCBQNLgiw+Tbj4uew0tNlCGJYyKidmI+vISV0eQlxQYotOcIssye8zIgykab72qSBn5ed1VCe7X2yDxzIf7Y9wdz1d776PVQFjG5J268JzcK1rNSnHltt7TsdD6TDDkzouyXL1QUWepCm1nIFK5lx2GPDDrH5nd2jN1Ool7ZiizY9mcbTYHWUk1nB8sw07GEeaZuGpuvICHMpELzcZWVkOt07sSOdHtlV3k9dz7smvRaba2K/Zbbg7yXQBIjM7N587hrWjbHabNDQk4siRG/8wCdM5nSEMiDii8bTtuTZ3if7qIEM1ATXu987mM2JEtpCu6ZbXRC7JcUCovGx1CIC4+nIYecesOsXrDaXFO0oZ+aUOJBPhwdOh1vIIwIYVVBe8CHpokho0WZBlsbF6tXHyGDesDAcHmA8EdqG1WqDxLNsbd0q5JH5dM98dCA/caHrlgEApWj0QXTLC3JoyRqwWlpqSBzuX3mrYgObq0tCu8Asgj0BWWVmmh4gnyqQa7vkeZ/ybO+NfdRAdgfy1h1Xvxd8H2kWwFqIS7rlNbG/cO9l6rVm8eHkJQ0OsGmkbVq65QU5rMgEl6elYJaYTg9M+9c+mpSMWcZK8cMq2GKHtiuy9MyV8CHqsFdLTMcH8vEAGlhvLmgWtQ9aFCMTyoTMO8rpNaRDDXet/imdlur62RHaNXF1Bd3KR6kCYolGZmy8ZxzuQCYW2wtitwHpgRYRrdMmZqbxnpKORPWtiY9ZPV/Pp2+f7WdrHzWQOfupx0aKdw8nNTQgPXFxRbe8JNHURJY4JVELKpn5tIfjAUKg6VfQbqpHNk8GScHSkXS8gfngDf2WazOCjykFQWJH6NdY9PbJIlYrOe4t07BjOnn2O6y2tMsLLHbkygFvtBDygXJ8DfPeS1DGu9I74lplxAXN6gWhLgbOEksERoIdGYd79+rLNbFdI6F6ZQSVQtDEPD5g6UgQ3/db5WU/g/j9so8fyD8FwE9A9hAU7WBxSbu8omhHQn37HMGYCJrJ88G9MkZoe8LiojK7XCBP1ZNINt7BfESzJ4iMAHaeFKnQdDSLDdKvyaEhibhXFiUq2Hz0RWOeoV04pTN2JHVBgy4KkZHp8OUjkL0P2jucOC9eCDQ9i8012q3c+6uiaoglgs1Mpz02nnzUbLNG45KqBoaoz1ZO4wFLnqnmPCf5LN/9bO+NffRAftvO3hmpzRQavH4qjYehC09iFQ01uVQoeXQVy3SqHGXzhNVyi4VYe5AnpLYahnkH6Ugosw90Ex887vOoAgT3yNKtKNqQxSc4CUKjhuQTeRpgTiANJS4o2pE1Iqq0QYg2kE5njzzX3bwvGzzOa/L9f7u8QNoFkwFBiUFdaKBMpOnEPI6gDRaXUDW8fOSzD4Av6YTkuQppexTzmHJ49/I+28/QvlZAPtsZ0A4A6mVoaJYeyro8j7pWVjCsjEg5MQ91dvJ6RbNY+3NIoJnCjNhAGW6c5SX+TnIuU6nPfcoitOst2q/J2kDoQF2lgzLThcTh/g35uIfY0i6v0G5NxrngmO+lbd4znm7J877OZwIrGYrLAEnJUAQWFy6g0LTkUsilEKKiYgz7HZIzWGB9+ZISGrTrfWlQb5BYNpGbzz+DYaja3a7vNefxrZLes/1F7Mz7/2nHn9e+lkA+2zkU9ZbCltitiYsNRSNF1AeXa0ElEcroHOf5CG0Dbe+D06UgapgkxAZkfvARqOZ710e3VReOjEC7gG5ZGy/qBEYULHntdtyT5wG0oekvkLgknYeTm3Omo0yMwy057WqyjTqjqfievdRGjcpYIz51N6kYKgWbR2yewMRVSUL7eO4m3n8cKZzu72AafcyrABjlK8ohz/af1v68YP5aA5kKZkMh9ITFlqbfYtKSTKsAQKFRIzKT5yN5qv250ceXeklJkCAoE5p2lGnnfbxveyzL4FQL0JbQrX36otUZURIRyagNqI2P+9Jusa6ytY2PrSnQRCWGzHB4Q5luESZK8f5o1KB4sA4BiGjTuSyv+p/bd+tGsESqxJLQLSD2TAQPsSV6NjyNlOEBTvdgM6X4BAzPtD/b+2JfeyBTA8QiDXRrusUFhI5UfPibqPgoJRJ5PDCPB4d+W1U8QnANLsVbC9Oe+XTnwnWPUxrtcaJhqfvkZnGBNkufUYxrZSueMBMbSdMRciIsVoS2AksjpRgaBNHM6fDKKZ02YbnOaZLi7yfi3G5pie0CCWcZ33MyzAhlZtzdQpqhWxAXKxIujl9wIEsaYdxTjv4+Jc8Ypdaan8H8vtjXGsjnYNcMiqmXa/othAXJgovZod5ZZIU8jsynA5RMbFtCbBFakIiIj2WVcmQ63Xofs031Xk9vURsDaE+/uKbtNmDhrdJRQnVEGLw0VIegN/2ihsauKZYxTDLzcEs5vXqsW58jgHIuP2kL0tL0S1fvFEEeJX8LwQbmwxuYTtA09CsXGCzqsr8qEGRGy57p8MrH1eDKJEKsXv/Z3gf7WgPZmw0r0YEA2vk+uVth0jxOlfAEU6GkiXk4QU4VyB1mETPX+3IZ3YFpuGc43tZWw8pPfqRtus5111/SdnXKY+0mEvFh49jAcLzHpgFCoF8uiU1HNid7JMsUKUg+ej152rsED3UahChF1LPxtDTdCtG3gex90iEPpNMdZTqCCIt1jRKo5y4QNRM4Mh2/hHKs41d9gXv2yO+Pfa2BTG02cCaTh67aLum6FSG09eb37iUxoBTSNMI8E0Igxo5i0adU4FvQIIl52nM63lWRuzqe1FxwwPetNYzvHWAVgj69QhNmE8OwY54HABbLFW3vgvM+mM1D6KgzNt7CuHMgiwfNosG3CwimnomWEDxqMEPNCBhSBsq8Y55PYIVutSG2Hu4X8wWsCUaQkfH0BvLxsSHkGcTvl30EQP5L3FAVoII4mKWBZkloXZtL5Nw8kT2ktESZR8gJ1YhqSzFnghX8o6gYlo7k8Qby0Vv/eGtAMziY45LQLEFbDKVYwcQQNYSJNO6wNDgc+yWhW2GiqPpzEehC8Sz5tEOpQvLVa1sNtM+JvCLtozyPUFASYhOWB0qqM577FdIsSeZZa8OnYQQ9kaY3kPZo7YT6cyZV/5PYuQjwl3/r/76v8J/m3dzOr1UrC1V6AlyGybn9T+Z3df35f4/P8IED+Qxi90R/3kMJBGuQLJCzT4RYfYotrjmWlhwachmJTULjkagH0ukV481rhI6u30BoQZVUJuYEpaxo7EQz/AEcP0NyxiySdQ0aaJj8DxRadPUC6z8la0cIkCwy2ZIGYzHfMN392Ekfqyum/tuksEKDEMQJJsES0+619xYXL3kli74gSPbkm43QXzLrS46ph7issvknml5JNvtwtzKCNGh/SYmCNZnYNJRkdP3AMP4JjDdIyUgpNF+52f5yR7V3/unRklHe+qqJyXfrAY+/+JPPf/c3z+MCPMuQ63/rgmc46aWYt4eW7IMGLGOWKFYoj79dn5+L3zelJhjf+TSQi9XheLkmPkfgBPkBm10NVSRRmClSKFVxWEzqiJ7Zf8ZMOUdCX7lkZ/vAgcxPgPPPdZj3JKudBeMb6C4Jq5fQbikSfe6SzqgOBDnB/MB43EFWNLRkUQiCqLmnlSWNDejwJ3D60m8IInP1vIEZEAfv4gW6+ISiHRK80SFZS0NhUXak3Ssf7tYsKYtvQLNC1HWq1QQtM2V8oIx3kHcgRhbvchJJqLlAH80ampckWbsUrxoakpNdyIyHOzjtQFv65TXStZRQXAEFBXYgr0mHL11YoMz1xv1PdNhbHWrv/GXtEbZnv3QG8U8+/Sdf9/z19vdv//u8MLzzWo+f5awUWkUpfNV61x5vJf9kZtkjq/qaouJKq2IV/rODWQaEE5YOpHRg4kRiqotT5b8ajwuOL0RfOeOv/PMjAPJfxqyulBkJ9a8VO1bba/r1NYUGxJNRQg2b8+A9w2VAo5E0QzBiI4QIIWTXuh72TMMDcEJCOpdwa1NCh9qKZnlFU4kYqIvsmbkypgicjgfKYQ+iLJZLYncuQwXnO9tMzieGU21+sIIUQUpASwulBXrQJd3iEmkWzBJIIVJiQCzR2YwNe+aHO5DAdn1F06zJdEwzaIjM84moEw/3PwK7A9mBnp7Ka39he9vHnX2j94B7uc4VufWxIv50vHvjOqLOX1qPUP9/fgS8Zl9w6WOXLHwLNzj/3tEXvHxHdEkoxHMLxQgZ3zJJApkpTBQmjISIj/eBiZROpHQipwHLk8/Rslzd7oS0B6IcaEh47aIC35wL4O/7dBZPn/TpE5/t6w1kMRBf9ZzgIBAa4to7obJFRDyIlNrLSx6ZhgdyPhL6AE3A1DulRIpPYZSZeTp4CansQee6KuOTIUqDsIL+8lEDzIkh4hnyKnE7TQOn4wFqwis0PbO5ZC8YRsLKwOl46+NW6/AbKf6JfQqFN4Us1lfQ9EwIsyglKGYzfchoGhh3d1CK63w3K4p0zEUITaSkiUYTu/sfQ7oFOVLeUfH8i9hXb0p7y9eer9Xbh3sqeeuwerzz64+He1bPgdTr8bgrfXwHd7rnlz9rCp5drbkklBPmKrgs18F25/5sH28rkhGZMBuwsoe8p9GBJoyEMCDhBHIC20O+h+lLOP0Q5huaqpT+9KnO1zW8Bebzz9/+9E/2DGQ8yQTU9d/7eJvFBZkWowXzbG8gV7LGjjw/QN+gyw1FG1/trWA2E8homZmHe0h3wOQhktW9lNXMdVwiiy0lLJiyM8m8dus0TLHEPB2hJLq+R5qWsUAy3+8piSAT0/CGPN8AR6L6wDb/w6dHr9mt1kjXOZBVSGKYzXQxE2VkHqtXbyLSLshhQQkNEgJKodNCOt3B8bai5y9LCJEnPytVJkW03pL1eNs7nsH11q+ntw5f3LQC8Hy/v+XdLdferad3iAbBXNZIH1cEp6hngdlcnbhqnTolV4HgK0Qyv2f8qyBMqBxQu0PtFcJnkL4Lw+/Cw7/D3vwq0xf/nP2P/1tuf/jPef0n/4r7V3+AZZ+wmUv2e1FLFSt/G8jiAD87hK9c+q83kLHqvs77paoLHXtifwGhr9pcilIIZKLMWD4yjw/QdYTFJckarNSLbTMqmUYKeXogDTfA4GmVM+vKcDBLgy4u0H7DVIkhQfCssmSiFmd4jQ6w0HUkcY/sz/H+5DTeM49voBxAZkRSDfseUzOE5Qppe5JGsgSHtxRCyKhMpGnvgn4B4mJNiUsstmQx2hiIlgh54PTwxpsnvID1ld3nn+eLGto+HQ7euq+QMzDrY1+5c30JPm+MnhzxE4jPLtvnVZ0BLfX6n9msau6nHYj+Ku9457o2oAWroTQygoxYOWHliNkByj2k1zD8GA7fg4c/IH/+Gww/+FXuv/OLvPrDf8pnf/jzvPruL3D3w1/i4bN/ze71bzPufoSUCaVQqlCkeUj1aP6tPJ3cT1k/v+ZAfrphsokLCtSOpGa1RbsVmTrkzLxk00hGbSJPBx9L2r9kLgvEeoJWvjSFRiCPR5fkKedOofMesAINpVld0W+uyeIzmqKKa37ZhDIxnR6w0w6C0PVLaBY+eQJDDRoCNp1Iwy1MO7ARJJFt9oXjPIuqXxPbFRIWqPZgLaItuQgpzYzT0cPzRum2G0rbYU1kShNto2iaWGhhuHsFKSPJ3Dn8JY6v3o8/5SmPh8fIlYJaFyjB5z67tOE5LOfJez/FymC43rjZE8aFxzKbe7sZkZHAkcCRKEcCBwL3qN0g5TWUL6F8DvkHNOU7hPF3KQ//luHVr/Lwg1/m5jv/jNff+W+4+c5/y/5Hv8Lxs19j/PLfkW9/h7j/I/rh+6zSZ6x4Qy/3tJyq9wVEKBQSc01wvW31M2J1AX336n3NgQxUb1CKVWJHAG2I/YbQrUgSvTkCQ8hE9aZ8m49AJIULZusR6QixQYIPngkCpJN3QuXprfezWvRIIEpYXNCuLrHQIRIJimeFy+hh/PjANOxAoO0XaNMjqu5BDAIKaaCMDz7povjeNde6NOo9xDRLQlwi2qO6cCBLQy7GNI9M85E5D9AK3XqNxRZrAlOZiTFATvQhM+7fuGh9yrVH+S9hb+95cc/4FnS/+tRq5wXRtxZap1W6R+WtEPzp1nYInAtTmUKq3+PXSDLI5KUhDsAO4QG1W9Reo/kVMn+OTD+C8Xtw+hNs/3vsfvgvuP/+L3LzvV/k5k9+iYcf/gtOX/wa0+t/y3z7W4yvf4vy8Pu00/dZ8yWbcMNKbujLG9p8Q2v3MPtssXOkZuClqLeA/HTu5yXHr9Tb9jUHsvq0ifPwca0hnkS0X7G8uGYyoagSuwYVsDR5CSaNMBd08ZJ2eUXKwpwSEl2/i5SwaaAMexgnMCUQPGp83KgFjI4iPRrXSGiqcmdynnY5kc5yPMUnWDTdClxol0aVPM20agyHG/9MRmWpdWTzpgmsg9yx2X6K6tKTbTkQ8Eija5SuMYbjHcwndLFEQk8qirYLhslo2iXTfCKle5jvIc6+l/szzCH507/O+1Y/6mD4OnnDQVl7cwtYtieHa/hNnzMRoUGI5jVdK4VSCskKyQwLgRKUJIUkiSwzpjOmE0VPzGVHtgfgAbgD3ri3nX8A03ehfA9OfwC3/47xR/+Kuz/6Bb74nX/MD3/zH/LZb/1XnL7/S0yf/Qq8/g2a3e+wGP6Ixfw9luXHLOwVy3BPH/c04YjKCWyg2Oh1YRuxfPJhgXkC81bU8477XPd+F8xngu1PLnVfcyBLTSioO64zwsT7eLVbkbSpTCcFcZkctZlQJkAJyytCt8EsYGIUTYgWT88kL+2QZpSI1lKCt0p5d1LRDm1WSLOiWPQ/puKKIzKjNngYnwY0RG+EwIUBBC+JBZ0p87lJo3ojiaRkmCnQQljSra9pug0qHUpDjJEmKk00xEb3/GmA0BDikjEHZlpm69FmizYRjQXKEcqpEh3+dHPf+Kd8Cf77pTaU2JnKet7P1jSS4CIQj5wL/xuJ+t/tnM0OZ421qISoSDQn6RQHj8mAyAlhD9wDt3RhRyO32PwZaf8dpte/w+nHv8HpB7/G6Tv/ktf/9h/x+jf/Ma9+9xe4++4/Z/r815Hb/47++Icsx++wGL/HcvoBq/wj1vY5K16xkjcs5I5eHmj1QKMnggyIjBgTJsnH90h2TkEeveXVzr3ebuetmAP6J4H8VfuaA5l39lDnoAwChJbQLaFZMhOYi9ccVczpjcWHhTerC5p+5VXAqA7kYMQgaJnIJ29+iGgNRSNWArlECi2iHW1/Qeg2ZNPaOqlogBAKbUxMp3sfpdr2ZGkwXBjfbCI0E8iOlF6T0z0wkcuEFXsqqZmANj4NMkTGnEmWGcY94/zAPN1zOrxmONy6gEBYsdn8HE3/LZJ+g6N9yt10yd3UsUvCYZwYp7OO11/Uzkkt3xuaeKopi/dXJZQpw5RgzudwUinmg/bSXDzCn2uUDx4hyIyIk3eacKQLe7rwQCc3NHxB5Ec09l3a+Q9I97/O6ct/xe5Hv8zd936Rm+/+Inff/WUevvcvOfzoXyN3/wHd/R7h8Ed04/fp589YlVesuWHBnoaZKKXWgF2swWdm+37BpGBSqsDi+fDHRH2A3zwfyKc7sImo5+2F34XnFKwDWbyx50+B7E9/9GtiZvUGqUue+woqkHtivyX0WxLVK+PidUEyZCdgNKst7WLt5ScVkiREjSCgNpKHW/K49xp0KVD8xkslUKwBOtrFBU1/8TgYjuBiBUF9Tz4c72E4Qtdh0gGuA1YsoSFhtmee3zAON5AO5HSilMn1udSZ1RAhdli7IEkDTUfoe/rVgnbRIQFyyZANZMly+S1mu+aQX3Di5xjCX0VWP0d3+S2a1RXt0imnf1EzaqJJ/bqZKqWCuYhQpEbTdStSNRz8+gdDA8QY6mFomH1/a7fY/CU2/hjyFzD+EPZ/TL75HcbPfp2H7/4Sr37vn/L57/7XvP7jX+D2u/+Mhx/8C46f/RrpzW+i+9+nGb5DN/+AFZ+zkles5DVLuaHnjo572nJPY0ePmCR715tWEKuP7vHAwReox/2UVKqK+PA/lcI8HTgdvSHFlUp9xpbfh2/vJ6gv+pbbfsu+3kAWD17srQKIQzmCLmj6S5rFNZmeVGIdo+oe2ZLXd0OzpO02qPZkU5JRM6OZICOkN+TpBuwITJV2pxQihrcZ0m5p+ktMF2SNFA0UBdSpluNwZB5d+keCC+P7J/ZQUkMCDozDLaQdyuBqJTJ7Uk3rRI3+gmbzKdZfU7qXHLhgbxcMsmWULYMtGaYG0gppv01Y/y3aF/8FV3/t7/CN//x/w8/9j//XfPq3/uc027+K6dZLdX9h8yScSajncy5lFVcGZSLGRIwJGCh57yUeboF7NNx7Bjl/BumHMP8JpD+G6feR8XeR4+9w+JNfYvedX+L2j36Rmz/6RW6/U73tD3+F8fNfIzz8Ns3h91iM32VdPmMjN6zDjmU80scTwg7YY3KiyIjpTJFElkKSTAmZrIkcElkzWY0sQhalSHBxBhrEWqS0aGkJpSPmjmABlUzOe4bxNZQdwoyUghbfgvn9eM5RnzcqPz3A/loDGc4L3NuBi7jWlbSE/oJ2+YKiHtKiwRlcZEo6klKiaEvTbWiaFTnXP2CtX0adkXLPPLyG9OCZUcloCHVxrUBuljTdBdIsMHX+djKjUAn7ZfL2SQSNvYsgSERD5wPeghKjMU178nwkhkITM5ZHLE81gddB2FDaFwxcsE9r7qcLdvkTxvhNdPVXiKtvU+I16Aua9V/j5/7W3+av/Od/h+v/wf+S5q/8bbpv/8/orv4mo204jIFc/myP7L7kT/86exe/KT0TDRPCgHBE2KPsaMKBGPeIVvBO34fDd0C/gPIDOP4+0+vfYPf9X+bVH/z/+NHv/CN+8N/9I3Y//BWOn/0605e/CXe/Tzv8CVu+4GV3xyf9A8v8Y1b2irXcsg47VvFIH05EGRAZiG0mtIXQGdoWrCmUUMiSveVCsofKlVTkR40ozq7B6l1lilqo9NlQ84S+SM3zLZb2YDOhGJHGn1uJpX6NnrL7nqV/F8jh7/7dv/t333nka2ZWQayCXzbDKXhSvBxxfM3p9kfE8kBTJX+SeSgYrv6HyNX/iHi8QW5/zDC9gfj/b+/Nviy5rvPO3z7nRMSdcqysCagCCBAkQYqmREqcJVEiTUu2Wlrt7hf3S/97vVY/dFu2JUukKZEyqcGiQIojSAhzoeac8w4Rcc7Z/bBP3MwCAco21e61GnWwAlmZ9+bNeyPiO3v69reXhBwI2eibSSJ5eoNq9/24UNvQuDAiSiEloEg+hfldVie38PkIpSPnliw1iYrIjPHGVerJjG4+pzu+S6Mrmz3lxvQiZN/Q5euMNp6lml5C3AjVjMOhWpNzQLHYNi0Tddhk+8rz7D7xz9i69hE2rzzP5t6HaDafRqrrUO0SRmPcaAZhD5gSnZDdCHV7OF/hi9Lmuy0TkHvnx6VQUUWN0urocKzwLHG6JLDA6QLRM2va0EOId2HxJv3xq7THL3N667ss73+f+YPvszr8IfH0J7B8Hb96i6p/wIhTqnRC0DmBOU7nkBdonpPjAlHrbirvyCgh4kqcnlnGli5HoibShThXnCXgXDb+tUPXM7iG5Btr7fQCwjKRxKiciVyO3k3J9S7TradwzVXIDUhjW5zomiMuWGOPJcRSsc7ndvg9bpELiAenZTAM6gqFcoyrN2zOk3jLNLvi+qUeTb2xhqox0myRaHCFrgk2pQJZ0veH5P7AOl+0jI8p4Y+qAw2In+D8GKQhZyHnbJTPHHFOjd6ZFfUjOhnRuikrNjiLU1Zpg5g3mS+U5aKDpORUBBN8QKWizwHCDlt7H+KJZz7NEx/5Ets3P0tz5ZPUV3+N8dWPM9r9EK65RtIpmZrIjMgmWTbp3SaZbZRNEwJch2qDy1d+UKySCjZdQ5ORW3R14VjidAHpxNzldADpIZIeIOk+MrjL3Wtw9EMWr3+L/R/9KXf//o+586Ov8vC1b3F252/p918gHbxAOvounP4Iv3iJpnuNid5mKveo4x3q/ICRHDHycyZ1z6iK1CERvFLXjio4vLN6svkEau2ETghNTRjV+KbC1x6pPBLESHmuQKl0zsn6q3kYZjENvEg26+3i+SFWbguux3Fa2lBXBaTYhm+B9hrE5ZYtZ/zRJfrfqrv5/6O1JmZqIdeC7cyuI0tHyHdp73+P/Ze+ij/+DnU+ZuwWdNrQ64T6fV9i+sHfw6UFRy99l5NbX2fXv8KEEbKAYzrirGE1+QSzp/8F2098lphvlJp1VWL0TNXfgZOXmL/257T3/4ZKHlD7Q3o3IfoNDtpd8ugprj/1QdQ13HvzR8T5A7sRKxsN40fbSPMBJtsfYbR1A9dcMqVP8aWs5fDS4bTFxVUhpCjGCbV+oqwO1YDHJk1aOUvBhXJL9uWMjWD41ZyNlAIgvWVpsefHbkGgI9RWE1+PgV2eIZXA8tBUR/IS4hmps3lUXXdK7hekbgG5W4cIkjuz4GQ8RsyRUrYauo4c9rgjF2fAkk1aJnrkcohmghY9cB2gZ1M0YLC8j3oU6wKHUtxk0zWzXdl2ZtOlzuAcPlRrNlnWgnInOFfYulFJoyss6yuML/06s2v/AuqniHkH8e48qX8RoWXDGbbP8x+/54GccMOsZABxRBeJEhnpfdqDFzn4hz8l3/8rRnrIWE6IOiHqjHT5V9n+8L+k2tlh/5VXWLz8x+z2f0/VQZ0rlrWymnjm/nmm13+Dnae+TOc+hBfFO6M+JBFqPYTlbVavfYOj1/8z2r9J4CEtDVpvs/JPEjaf48lnPkI922N++hC0o6ldaY+cIm4D/B4SLkG9A25KEpPkW6dKstEqnWYTsXc9uGQTLdSTs5LT8BxwYucki6Iul6YBhyuNhIMX44bkqutQl0kEQAms0NU+Eu/Snb5Fuzgl9kuOjvdx2hK6E+vddkaNVF2Q0wJNCzSvqP15PChakj6q5SbO68fOb+BzvrRQykCcx61aXOcScBByLL9fgF7sqFBAt84aDx5zeY6AaMBJXUB2TmKxEM1+JyaTX8oYIrWgUkXxWaiy0IdNzvyM5tLn2bz5BzB+jsyV82tGifKkbJR4chkPdNGdfk8DeaDreRyS7SIl8ZaVJDNhHz17jYOXvsLqzW8w1kPGekRmjMqU/eYDzD78O+w99RzHt+4zf+3fMp1/C52fsl0F2tpzookTfT/jK5/j8nO/S5r+MuImiKuIOeF8YsQS0hHzt77LgzdeILX3CJzRTC8xml1GmxvUs/cx3bqCuhGxn1N5wE+Axi7peiCdqXqa7K5J8g3LXL/i7mki5w4ho74ykXwp5BgVnLrivylIJEtfmEYWn6EOxwhHdd614DP43qChK9qT29x//QXS2YuEfI+QFzRVIuYFmnvaxQKP4n3Ge5s1NUgqGcvr7eA9B7RZYctlFAWy8yCpmE673UtNdw1GK3sJGdGhIdQqAPb75VyVjWDYGM5fYwB7wLnGLHAyRZHh9TwWQ1O+irGNzDIX9pnHmlEWOuZEZ9Q7n2P36T+AzQ8Cu6VCgr2a+vXGkqnWFvliqvE9nezSwr+lnJgkQpZzkmCFJWHS6W264zeptCPkldVxpeIkT9HZVbY2rpD6Bl2+ietvQeoIEpG6AV8R8y7N+AmmO+9DJnuIH9GrZbeds4svzuj/0mww3X2KrasfZPPqP2Oy8zzj3Q9TbzwL4RJRp4if4aotlEuo7oJsIG4KfmzEDznXsLbunnKsk092eB8QX9suX1ryKJGZiJbmjh5ci7DEscQxx+VTSHNyTDjXAN764N2gORYhLwl+zurBi/THP6CJb+DaW4T+FrXeR/p7NKGjCi21X1L5FUFaPCtccZHN9liXl4h9dSVZJBLNo5AMrgCsHOftj2Y9DXgXLFyB7eBqP/q76yddjPztZ+vvh02usNCK5V6P0StNGcMLDYxBa0cMiAsgFSl7Wp3SySbSPEUzfQ5XbdvmXOSabCOScrdSNi175ccWuaxUbLJDcGpAHhr/Epkpx/j8kO7N/8zRS18htLdo0j3bC6XmwF2nvvFJrj7zWZDrzF//YxZ3vkJozxjnlo6KNles8k1mex9n5wOfhb0PQ7hElyfmAjr7a0oi93PQFU0o8VkSNAoSNiDMiqSU2uRHso1lLbfbcP+BohZ844qFHS5wHsoklBtNK/uN0hzvxSrcjsL11tbq3/EY+iNoj4jtCalf0SXBbT3LaPf9eNmjTxXqi7XUnool5IccvfQXzO98kym3qPoDgp7RNDa6Zt7ZjTnQMM0CnSPJDbIqaPEvB+toDSNODaxW7rGv5vba7xiNdbDiZqkNEvaZkzMu87CBDcu+sxDDQH/+nIFxIPSoLm2zdBXeVQjhQrxtaqZJIWYt3XUOVWuIhQne7aDNJWJ9iWrjl5hd+hT1xhMQNgpsI4IvKiVWsrOylgkNXLTI72kg50I9cNjFz2LO40BXH3NCyAfw4G85euVr9Ec/Zaz3SkJDOA1PEPY+wtVnvggbH+Xsla9w/+U/ZURi6pSkIxIjVG6wsfMRxk89D3tPQdgm6QxX3KWIkqVoQw17riajBGRKxtxbRxMZIZFyR/YW3xUbardaNrdY1NnNpabhhUAS08MegOzUm51wbVHh7CyzHufo6gTJZ9Ad0p7dZXV6j3b+kNSdQOqIUtPc+FW2nvoUdf00HbMinyOgkbH0kO/R3/5bjl7/Gk37MqN0CO0BVWXWMDmbaHHRDYXCa0fMyjP052bb8MT6ukUFn2rzBtZJLIs/DXY240rU2j2dghTggxQgn29s5S+VuLpsFEJx06UMEjg/hBaRs1JiqlEqVGuSepMTxqPe9MGzC6hrED/GhzEujPDhEs3oCVxzCW120PAkMnofvt5CpS7XORZiSChEGaMvZQuAcBeg/J4HcvEIC5AzWcxKZ5SaU0I8gtMfM3/zmxze/g5j/5CcEilluuYmbut5rj7921RbH+f4/nc5vPMCo1AzqUZsbO0h4y3Ie+Cvw2wDautKylQEEUTt5svOIKkomiLaJ5w4vA+oMw/Bck+KEsmaLJ7HlakPvlzaovA05GtKaxySrftHzAoJkZo5pEPoDqA/RPtT+vaY5fyYdnFM7k/Q/oTcn5C7MyR1eEnUXshhxmrjl7j83BcZbX6Unj0SNREPOTJxEVZvkI5/xJ2f/Hvc/EUuj1p8PMF5axCw7LYrmd0yiM5ghCJ47wuQtQC4AJlkQM4BUaN2qogBGTtHg11cCweoIDqMt13b3BL72usPf8P6nW1jtZfzZZOqbCABARNlyOTsSFqT8shyJ26CuglJajr1uMrG9Y4mlyznMdmFZrPkN2pwY3Bjks6IbKFSEbOJIDS+KgUoW3Z3RNMGIyCYXDPvdSBriWWkWGQjuEeTekEJeYF0J/judeZ3vs3t1/6WcTgkpUiMkTB7jmb7w2w98Wn85kchPUT7+1RhYs37lbmuxB3Iu+AzvS8OkheChVYlxsvl1itWFSHHbO5lEJKWclG5mIIS8cSBQRTtA3mBIA4vpQ45XF1JZLHuG1Cctizv/R3x+EXaxVv0q/tInuN0heYI2UpGnq78lWHCo9FPOyYsRx/mief/FfXlT5PlOj1jejyaEmOfCDyA9mXe/M7/Qbf/HW5sKSGe0Mclqtk2qZKYMq9hIFFYnDuUbAxoJigwKK2YlXVQOPBD1nl9Y69TX+dkjSHCVcw6m+dSrruzWm+WIrfD8LedCfZpbS2nWoT7JJSEZUXWEeI2CPUu9XiXarJLGG3hJ1sG2DCDsAFuBjIGxnYtJROzmKSUNKiMcMYbJKdM40P5DOeH+ZB9IYmcixK/54Gci+VyaNnxcyliOAKmm8XyFkd3fsDR/svMxiu2d3YJzQiqJ6G5CdUVVu4SXk7wnKJSk2lQ6Ul0+LyF76ckB8lB8NFa2HLJrDpH1EhWcC7gCWgWUsIulDeOiu3MCikimsgiiDdOLppw0qK6pO86VIU6bCEyMausGXEdiJFZUnvImz/6v6j7F5F4D6+HVNpCXFGHmpzNtbOY2SwaeIvxROkZs3TPsP3k5xm/70vgbtLJBEKNZqhdj6R7EF/n4Uv/jm7/BTY4wHUH+AApRWvLLDfiescRLZZS6PtYBgdIAdaQw7ItLzhLINm4WU9ORSiveCUhCJp76wYjkiVZHsxjmfmSq8qU8pRzNrzemdVNKqTsSbmy2rlMcGGCC2PUzchhi3q0y2y6Rz27DM02hKnRYTG1U6siFDVTGlQrslaItIjMAU/MHu8aYlZiztShKdvOILp3EcgUaudFW/0eB/KgR+4o4msyRMgW4zgtJDidkxf3aFcPaZoON9kw+dq4CeyAGzF3AU+L1zlRLDbOfk5mSc02da7XHT1Ci+gZkgOVa8C5QrTALpcKKalNsyi14KwZp5bJ9aKWksstuCKwFxeQT9B0ShaPH2+C7kHaMhcOZ1pTvjdFiu4hb734fyLL7yLdbcbumIYe7VZUfoSmkrkWLewlV0ofnuSUKCPa/CSb1z5N/ezvQv0siYm1SmYIrgfdh3yLo1f+I4v7/4VJf5fQH1LVQkxdmeRhwDQgn5d5QPBusNh2mG2mPFfpu5bgAyE0iJR8QDYwC0rO0dh1PqMukyWRiMQcQZVRqNHsiOqIWFtpLpYx09BHh7oxPmwQ6k3q0Q7NeIt6tAHVDtSXcWETH6YGYDe2UlGyxJsLZVJJseqaAzmbyKK4jsovURw5e7zz9LFDFaqqIWfwriqfWIeAyc6XPoJqO1vvaSCXpNYwD2nIiBqQAzlZ7aIOFC2sVZGECcTsCKkyN8kLnYNKOyQvgQlJK2JYkjilZpOQRyXWxRoC8gLJI4QGvC9jXgaBF1PKUI1lMJwleqCDvDJJn34ByzvQH5D7OavlMfP2IWerIzRss335g2xf+hSufo7MJioe76PpUesK+gMevvIfWR5+mzx/lQ1/wtRldLXEUZtbLsU3WddbvWX2faKXmlW8wuzyrzL+wB/A5HlSHlt2PSaqoMAZcI/Fra9xdOtbVPPXmXBCXUHfr0wcQOxK2LkvBelyk4oU4QCchUHlAS215DpU5qDkTIpWnxUEHxzeObquNVmkEBBvXWWJoSFFcFVFJpC0LtyAGVlmqMwI1RbXnnwOmICbQBiOUZkuMgaZlU2ysj5zHYArdi01WuvlI3UFs6RJI1E7vGvIvTfeujNLa+UqW0osjSTFldYSLj1qoh8DOQ59KgNRYm2RQ6Esmmdn+vVKoqVPQsyBkQq1OLKH6JSazmJLnZlV9R2dHOLThNBPyD6hPuFcxpNNgqe3TK/15IJKNEWJtX5UAV6ckxdHtKcPWZ08pJ8f4Pv7hHRAjks0r+h0zqJfoKMn2H3iE2xf+xfI6JfJ/hLJPHi8lNdM+8zvfIvD239Jf/Qi29UJM6/QLsmpwkkAV0j+OjCoHFmgD5EogWV3idHWx9j64L+GrY+R8oTspmhU6soDK2Cf/uBbPHjlz9GDF9kMZ4zqTLeam2st2CY19OLKkDgoGu1IGaRn9dghw40OAMEyuWrcdHGOUHm8r0gpk7Knz54+BRINiQp1DckFOnG4ekLdbDOa7DGeXGM8vQr1nsW0TEBG4EZlRK0vRR+zsCYEYSUlS3S40jNd/Is81L4HqomVtFBzjqNAkNq8H82E0KPZkZIRVELlSnJrUZKZtZUMza276Fk/BnIaSg2KqTHK0C88TBoYbistaYiOlD0iDZIiObYk78jBMdFIyH0BciC6SO/PqGJFiDUxtMSqBxqbHZU8tJmMs01dILPE5fvE1S3y6g7aPaBfHdDOH9IvD8m9kTE8K8Z5RYhLSD21d7gGVimxCk8w2v0Ysyf+Fcw+SQ7bdOWiO84ILHHpgHz0d+y/9nXag++zWR0ydQn6lphMUkhdQp0xlgwunuSE6HuiBPrVZcLoeS594F/j9j5pzRYyRZNQhYBKj+OQvPg291/+T7T3vsOWP2JUdfTdnOAMyDpY42KRB9faOQPweTxoZmi4YftuRVUFQl0h3tRVupjpk5I1IDJGdYzKBsgmvtrBVZuEahPqDaZ711E/NkHCMAO/AX5mFlgDcdUjLuCKvrc62+pTSaC5bKZRVQzQnINapEgOlXet2TTFNCU0Z5Jksoe6qsu9t8C5JWig72ucmyAhlHBifqHcVBmd+LFFPl8ZI7PLkLk29nORnRmylcUWFRKG7aUBoSallpyWpFCRXWBCi9MV5KkdfgmuNXcoeQhLMisS22Rmpl/XRdQH2zMEUjohzn/Cwe2/pT36CVW8g8QTJJ0itATfE+pEFRIhJlzXQZ+oxCOVo4uJg7hL37yfJz78b/B7v06qr9DigIijNDKkE1j8kMNXvsbq4DtM5S4NLT73lol1FeotQWTeCpaokQHIHuIevT7N9rN/wOT650iyhboNSIHgA1EUkQN8/DH7r/0Zizf/kpncp3ILRFdrLrfFxUOt2LZMRUoM7e0arA97vAySKIwsR8LbOB0/wlcTxE8RN8OHbZpmj9H4CmF8GeotA6ufolqjfoS4GvHjQncN5ZCSCbX3Z9uNBT+JjMuRqsSvln8obGt167jeeVc+id1tYH3qg+BgIuI9FjLpsY3iiRUxbhNGT6A6NuYZq2KAS3Ivl5DkMZBtGbGj1BjhQpwGiiNlIWVnHGApSlISEa0hVSVmblFfEaWi4gTSEeQAKaBiom+uy9AntF6SxxEn7weeMr5z7O1m8kCOOD0hn3yf2z/9Cnr8ItvhITUdlbQkSUTt6Wnp1aDpxRF6R6WeqjKLcaJbrKon2Hvu96n2PkOsr9KzhdARSITsTLmxf4n9V/+c7vDbNPkNXH/EyEUbdC4Ocaa/HbLgs0Oy0TmjjyQR1E057beZ3fw9Np/8AoRL4HcgmTuqDvp8TO1fYfHWNzl57RuM4i08J1ShR0vJYIDDcN7BssY5FxVQKhCrlVtc7UlUdFrTUxOzBz8ljHaYbF5ltn2NanoJZGJusR+Da4qQg0OzucTiG7S4yhmz6DmpqXZqpvKWNbZxQMbUsuXO1T8HgK4L9/YprPLfFeNgcS70xpgjDnEDxFOIh8TuHlEfcHo2Bp5i7/KnkOYDaw4BcIH6Y99dXO9pIFtN1LZ2g7IJo9myPdASD9mYVNHqqg4xbSudgyzKUDWH5COI+xAjfYyktKLr56T5krxY0teRsDViuvFpmukncFVFRM3SJUHygjosoX2Rhz/9U/oHf8eW3qLKK3xuiV7IwUOVwRvtT8TjeoHOFCgVWMiMrrrMpff/LvXlTxGbG/SyVyBio2TJCfpXePDqN+iPv03VvwSre0yqiEpl7r6zRFuVIGSHywHUk1wmOnDNiINlzfiJL7N187etHBeuQi7NHB667ox6dJv+3t9w8NqfEdrXcPmYUaPEGAuIjXY45CaUmqw1uAaREd5P8GFMqMaE0OBDjboRfnwJqg1cvQHVBvhNq9X6WSFaGPMrZSWp5UMKH9S8gWxf7RpLAaAdg092blEHZg2lHDbMgCpSvgNQ3TDho4BXl5AWpO6Urj2l6+bEuELaFlksif0xyik9BxCOafvLjCcf5/r7/iXUHzc11AuYdZSZA4/i+D0O5JLcF/unEeCEQoQfXG5BnLO4KM/ReIJv920Q12ofPbvL2WrO6eqU2B4j8QykRVyHZpu+5zO4pMRmgt/cZfPal5js/Trqt1hRU2fj6eS4QFgivM784bdZvPl1RosfEdIcFxdoVUNVI7Sotmi2bOn5MHUDQ+tGtLJBnv0zrrz/n+N3PkHPk2QcKWXGziNpBe1rxLOfcOcf/oQxr1Clu1QcE3NA/IicjS1WkQjZsteaKZpi1tIQq13mzYfZuvEFxlc+C/IkGhtzbjymtd08hOWL3Hvlj5kf/oCJGJUlI0R15Fyh0uDCjNBsUI02cfWUnSs3jEDhxha3SlPqsoV/HCYlY1wOaQp4S3911hImlVtczB812qNJ79jPKfWC4T+7IZJavV404SXhh1JfaQqhPYVg5S1YQndCnD9kMd+nXR2xXOzbPCibuLVWJBESVYo0uTe1ECIpLOjdCV2+wWT2a2xf+RIy+QyECbH0gwO4VIiZMiC6fIT3MpCHS2Y7sDlJCSntaDYzSFDEVyZ4Ho9YnL7F8t4P0JOXCP0BoT+gy0s6XeI0EkTxYYX3SzSZcqbLgsPThS1kepWNm79Lc/ULZLnMkimjlPCqkFao6xF5i7PD7zF//SvUp39PrWeEvCD7BvU1nhWSVqgObudAvQyoVvQu0MmYNH6eK898EXfp80R51phgGUZO8WmByAEsXuHuT/6I0P6YKr1J7Q6IyeH9mNhbC11FTyhN/AKos/ex6iJa7TBv3s/syd9g4+pv0cnTBDe1hKpierXVMbSv8tatr3J68CPGmpGYqScbSBjjwyZVU2iMkx2YbEI9NU/UNZY5lhLDSqmJP+JoFsZMiU+H+NkHA6pF4KmortjWLVnIXbayj1dkaFQZXOVCC7KyX5lrzNzma/WnEM8gzWF1zHx+yGJxQNcdoenMusSktTzAWuzAhsgNbZhBE7VGGBp1Qk/v57TpSerJJ9ja+xKy/VvgpvRFyxyEEI2NZhGBeQ88BrItoVAPS/siDMO+ktEVPeAE0QOO91/m4PW/ot//AWPdZypHZOnJPtrcPAEnKxOQk0JQiELlapayQRpdZud9v0d97bdRt8cybzDKsVyT3rLEcofV6Y85eeVP8Yd/x0jmNCyIUpEkEOgRPW8yt+FiqTCvPNEJnWvo6w+w+9QXGF35AtF9iJ5AUs9IFJ9XiDuD5S3u/vSPyKffpYqvMvH7oOB9hXcja77ILRJbUiEsJDG3V31FClsc8SSTa59h+8nfJodn8H7TZjMrxG5FqFvgIYdHf0+/uM3UBSQJk9leIVIUQkWYWCxb2FqIcZxF6lKvNUurSJEQ6g3HUoC8zm4X1l4q9lWMhmmdSudETct/D/FrZ+UyXZTJHi00wcDankJ7hK4OWC0PaFdHpP4YTTZeN6YWzQbaKih1BU4SObYXAFzutZKPEaxJxBJ3goaeHFa06RqE59m49Ns0V38H3Cad2Gf3ODP+dqkfA/nisv25kK4HIJdTYnIxkag9EsCzz+LkZY7e+Bbx8PvMOGCS90nSG/2v5DtsRu4K52rQQO6hDiPO8oSu2mX32f+J5voXwV9mlTdpiuUHtVZAuU9cvMLxy39CfvA3jOWEsVsQ8fQqBCsElb5p1h1B9kmE5JReAm31LBvXP8fGtS+T64/SUZO1ohHFa4vIEl3eZv/1r7Ha/xua+CrTah/RjANUgzUnaERyJGctA9nHECZ0SeiYsh/3mFz7Va4+/UX85P3AhG4FTipiHwlNJlQdKd3G6dwyxBoK07Ap7vPIwFpYbUkVHwaxA0tISQGoHUpwFlIIhZ9t/mb5OqwywmcYTI7VxpGM5s7ECXQJLCDZXGPiHLozTh6+Re5Oyd3puaV1Hd51qC7o2kN8ULwXTBjVSDyaLV+xjq+HHIwOlW+72tmJUUuz4KoEVcuqv0SvTzPd/U1mN38f/C4rHSMEgoQCZOvBNh/blm1f79k17MrlGEpROqhMeLIapS6rorlHpLM4Np1AXJC7Fdq2aGtlIJeUoJ5aaipqvAacBkQt3pSUSG0LfWtZavK5O+cc2QWQBhc2CM024mdkKmMZrO8KKYoelqgRKQ3rZSyNA7yYHG6/OiH3K0snqeAJiAZETSRQQs3m5i51s4mvZiATlBFJG6I2dDqm1Q2W7LBwe5zJZU7dNU64xlG8ysrfhPHTSH2VKFOiCXLjQ8AHjwsepUaZIHIFkSchXYd0Bfy2ZZT9qMS/FbgGV40I9eQR/W6lzC5XULVOcnWB7Cp6VdrY06UVfToj5TNUT62cI8eIO0SczSsW3gR9A/RVxL0B8Sfk0++yuPMtDl75Knd//Ee89YM/5O5P/pi6/TFV9xNc9xNof0pavURavUy/ehXiPbanMK0ylXbQLcjdEvoOlxNejc9tFrh4CkVdxEBc+qF9KnJLqfhXHeRTm3cdDwupJqGD2qfEtazyxfUet8gXQZzX7tnQkSMCMSZibgkjR+Au2r7C0Wtf5+ytbzHVE6Z6StSeVPqHvavWsjWqhVubwEvFSkYsZcr42hfYuPElZPo0SS7jckIQ1AeiOByHSHxA+9bXWb71DVz7BlN/ZMJEKRuRQik+VknQmf9oXoVv6R2c5etUWx9j7+n/Gb/5Gfo8BhmXSCGCnEG8D6c/4O4r3yDP/4FKH5TuJ0X8BPENztU436CuIfsR6jfAT/Fuwubuk+TmKm56A6rrrPoxo3qCL4J+KeXSDIINfI+RkGrblEYm2E/hcOdsBJDBHTaxAWMZl09opFpNKGqhCxm0L5K6Jrxnpn6IbVc2LjaeEvsTclqQ8xKNC44e3oG0IEezwl4XVNISpMPT0y1PcZLwXgm1ECpwXo1tlTKxjUh5v5YMF7x3plsOxNjbZRpuJi2XqBSnkmS8qyA5nOsJvqdNM9p0CT/9Nbaf+F3Y+BAdV8haUbkGXyZ14k3Saf3y73UgG+u2AJnSQK7OLoBC1xnhvh4FPCaI3t36zxy9/g3G+SETd0TMvbnfWfDqy67Zk7JDXIND0KTEasJKRsj2p9i++SX89i+hcgPNyRRK/Igej+gRlR6RH/4VZ2/8GensRWb+AVk7kkaCr9CkiPb4QilVTFYXPMm3JKecpCvI5MNcffZ/xe98jpwn4KbYp4vACZr2kf4N3vjxn9OfvkbQI6oQ8KEmqWWSm/EWzWSberKNb7aQesta87KH0Ta4TWCGMmPRQl0FgjPuuJbcgxNXEoiKJBPoj7ogS7RpDKWnWhHjeBeSiIg51faehwAxoURS7nEuFlGE1jLHeWHjfNLKgNydkVbHtMtDVst9uvaYvjsxcT+XEe2KXG9LkB5PJDhrTNEcEWf0WZxltpMmumiSwyNXEZzHB4+IQ1FSiqRkzTfOn/c7A+uaOSjZBGBo/AiiQ7TF+44+j+nZQptfZnr5twiXfo0k7yPmBu8DPmerOIQi6VTWexrIdoqtXmh1QTmn2am5sjnarSMegj7A6R2623/J4WtfJ8RbNHJ33SLnNRiQS89oTELVTPAIKUa0mdBSEye/zPZTX6S69Ksg77PYEyG5ERFB8pyKU9zxtzl5/Wt0R99j6m4DK5SWECpSzHjt7YYbmt6zMZOya0kOjvpdGH+Q6+//X/C7n0PzGPWz0umVrYEinwAPeeNH36Q9fYsmtEwnM0bjDSazPQNtPbPDF+4xY4tn+wRhTNdCoqGqN8gKwUNKyfS7xLZKixKF1CckQV1VqDfLOkAVQHMi5RboEcmWLBKQ9YDzWCxtbyUgKUmqeEK/2Gdx9oDl6T796pS4OrVzRGsywKxw0uF9hxAxqnfJKGssA+ZL5kEt9h4qGTZ2xxknHhMs8Mli4JJesf8N4brBdc0dN37CALVB+kcYVWMkCqQVwfdEGpKbEeuPUG1/jtGV3yC7DxHzxJhiCXxuIYTzP/QYyEa7EzLO+vbKTefMMmdIw1wzDyN/Bv1bcPIDlm/9FacHLzD2b9qoTI247MpMH3vNpJ4+CqKJyjlopnSuYi4fZO+Zf0595VNk9zROjDHVU5EQa+bPJ/j2R5y98lXO7v8Xxvo6yBlV1eO8USCdRsjRFCq0RlNDzjVJOpLAUq4Qq6e5+uzv0+x9BsXUK5waYGJhH7l8jMQjnM5tXpQrapxuXEo/Q09tBUUhI6vVM3PKuDCxbHnKOO9p2xVV7clEJJzHuKZfogaiMqIctUYIS1GZO6x5jqYFrtIi6l8IF7ktlreFvCIe3SV3xywXB6yW+/T9EeQllUSCZFxKOE0mjKDpvBQkPdklojOA2VUfVDXLu9UicrBOWZkemN032D2zLlWxDmsKos+XDJ7EAGZbitFKAwGvzjwDOpIEkhuxcs9R7XyG6fUvEuWXUNkmqeAyBFWyRnx9nuJ6jwPZTrFdlFQoAZSL4SAXMNtdSOOWNuFv/lMWb/4lJw/+mnF4tVjgiEuOoN4siWSqeoq4mty3SE5EF1hm4UyfZfvmF5g98Xm0+QAiI6Ci15oEBHpcPsXFl1i+8Q3m9/+WMW8Cx4jMiSmRihyMvd0JyBSRGcIUfCI7x2m/ycpdZe/ml9i88imSn+CqGVVJd9p2k0GXSF4iuS0Z3cqIFToQLQK5hBzWwy2ompyrpoT3JeZdWyb7mkoMb6kps3B2rpeIJsK6Jjy4zL25x/HEsscsIS3Rbk67OqZrj1mtjuj7MyQu8HGBz0tyXljWWZYEZ65xEJCUjSeumExh4QeI2AiYGChqIOVtFyjYR7gAyDWF9yJUzq2trcEAvAOYh83hApCTQlIxii3OFFgkksSTQ8VZvolOfplLN34XbX4NdXum4JWt6qSazHUf7tj3PJALL34QFTjvvcGyzDmsb7NKFghH0L3K4vW/5Oj2t5i5V1F6lAucZLFh54qnTyCpx5PQUJF8YOmeY+vJX6e59jm0+RDijNKYc00uFlnyGcRXWNz6K07u/R2NvkXwc4JbWdeWZlQCWaoi8jdG0wxN4zJXSJjuvg8ZPcFo51eoN58nEsCNDMg5G01RuDBsPBWjYp1fKWNcZLEupcGTG27TnDMpRipfmbazJnzwpIS1KPphs0zkHBGFyicbNJ6OrT0zt4W3XMpA6WwN5P27r9kc6tyicYnmBZqXqK7KwLOMl4Tz0UTunbnM9noZ7wxYokO6bHj/FlSpG6zsRZgaEO3fBkDholyQfa9i5aPhFQ3sBcSD6T5/tLz6cNgGkslF0B402fuOIiTvWHEDN/0Yl578HRh9miSX6NIYzSYJ7IAqPE52QdmA1/GN5NLZYk2MgiljOLUuqJgF5+Z4dwbpFvPX/5qjW19ng5ctG0vEZwhZwEVEIiqBmMGpATk5IYpjzjM0O59g++Zv4zZ/xfjBOjYLqEXJQ+fg7pEffJ/7b3yb/vRVyCcE1+KrAN6xip4kI0KzSTPeYTJ+gsn4Mm5cQ11DswNsQHiSzBWsiurxOLRL1E7sxlKgJGAQu30pLXsmlF5iPztr6/5kxGEDYqR4B6UkoiaabyDGhN61tEO6FuQhLN4AdwzphLxa0K1OaZcHtIt9usU+qTthNnJ4eiRHc4m1tbovLZCpq6YMVLPmjqwdWXtS6tGcqaqqJAGH2vI5wITi9UJ5rwWia+2vEnaVPnWDtj3itMyH8sOImQHI61de/x3Wf+dtMBOb8WyboxYCiyXAkoOlXiVXz7Fz9UtUs8+T3CV6ZnjvTbSRC/Og3utAHjZIFdshB5tcemFw2YTwkIqYHSILXFggeofTW9/m+I2vspl/VMjxPS5nghqQ7bDmcy+JymWimGzeSbpJHn+Y3ZtfZnTpM4jbBJ1a1xTegMwc3CHd4cvcf+OHdGe38bTUPtOMR4SmYbbzBG68a26wGwFbBlxrcIVqAoyIuklym6YyqUpDMN35kgE293ZoEbTxMEhGvFlsO02K5kTOPaTecgJ1jXMeX2LLdW1TZ8CYnCBnJdiQKJMYkgV0r3D64Lsc738Pp/uFyxypXG8JKV0i2lIVnW0bdaNry63YjKko9r7EWbZDBjnUtcs7WNbz+HYAms9KVfrQFZPgXW/h5TObd3Z+DC8hiokl+uEmGl7X1j8OqGK11VkCywFUKNYmSnB0eY/ob7K195vU278BskOnI5yEEqKcT9TgMZDXQbJpWosNRDHFrkQhDgG11Tddh7oFnnuc3vseZ2/+R6bt3yGl88VlxStW4HeJqI4uQuWV4CySzt5zmp+iDc9x6akvsXHlc3i/ZTd/Liwm1wILUjpktXzA8ugePq+YNoE6OJiMoW5ATdANF1BXIboJTO1GljLxUQKrbFpU4my644jGPtuQiLlQxrCboQXpSqa4nCC4EMsOzQPDb0RIPcQVqc/4+irIJvgxKYP3zsxNu4B8TJr/kLfe+AtG8ipBH5TmkpJdlhbNS8i90SjEGuq9BJxzlgl3Jl8biZbXKLewUiiY3sTuk6kX2jb0iJG0cahVwb1Z5HJIcbwLmO0JFyFSHhhofBfN4gW4208vWufzTcVew+rmFBnflGtSaooXBJFdqG6wuftZti7/FoRdOm3ICn2fCM4zquv1330M5GwXRUVJQtH2L5yiwWANhXcHSeZ4vc/88Ccs3vwPjObfQrRD6XEZvNqcFnUKfkTSylzKnFimBKFizjMs9Bn2nvkc2098kuC2kLxR3Gpnw9BYolgmM+fW9BSdh5jsq/PQZ2J2ZC8k5xE2cEzwJHwZwI1gErV4HJGUV4x0DMliWKyb75Fb1TE3qaG8LBnjcjNno6ySCz+5Kjz05Rl0LW23pE+O2e4HoL5qM5WzIzhvrvdqAXJKXHyfN1/+KpP8Eo3es7DEWXdRCGWmE5mUrKMLKiPWUBh2Yomx2bSynu4MWlTqBzIPnAv+D1nji1g2oGoBmIFL1mCz37/YXWRrAKadMMtan6+L2e3Bpbf+anPdL36FCvzIlDsFso6IaULGIU6IeZsu7TCe/gqXrvwmrtklhQnO23u0v3SebHuPA/k8PtQyrSCViqZXNWOUS5annP+kCyTvszx7k8Wb/47q+M8RjTbLWL1tA64iSWXC47lBEJwI0Tnq2QbSPEcKTzPafZZ68ymC20by1OIxByo9mY6evrzPSKWCdw1p1Vvc6pypNIonQymb2Q49RIRtuyJU5kA75/AkYr+kcWNz48WTLiRahRZhjsvHZbh4IVjEFfQLcrugW85JqxU5tZy2R/hG6M4WaDLFC9dscPWpzzHa+TC4K3S5IbhgEXPXQrWA/kXuvPxVRu33afLtkvDqCvXQSnlKpgoNos5q5HiSOHCCFiUX4tLy7+LWHVCW97Bb2hdChtWFH7WVWYTszAJje/ka6Ot4+CLy14/YYcbYJl7YzxwqRswxM3Cxt7oqNNUaVSvh4Uf4ZoarKkJdEcImPmwR6gaq2uirsg3pGjTPQbYpFmJ5SmPsXsiCv7eB/IgdGi7f+b5rDxetJc2ItwFiKc+Zzw9YvvXvSff/CI/Hu4ocpuQwJfptkttiY+M6mxtPEOoamhGMSmMAWygzolYkGnyeICkgLiGutZtsmGekCqlFck/tJ3jXQE4kjWjwJQ2Ti4UIhRppK5WxoQJ4sZs6xZ4ULVGEWvmIyjaoIIeQ7tM+/Cl13KdbPGB1dp95+4CkZ9RVpg4QkpD7bCG9E1xpret9T+enVLufYe+pL4H/IMu0QXBGWaHvETcHfY3F8Xc4fvNPmckdG62qrREXizhC5X3R76ZMk3BEEbLLIBGnahUCLfFvmftkmWiLmWPqSzap2MqCTIfJA0k9Kpe4KHYMdeQyKyrFiHMeJx4pc6gGeShU8SLGqlNfpIIrsrMwpteKeQviNwnVLvXoCuPxdUbjPUK9U0g2k7Lt8qjEkBaLLQ3oBHRyzt4r243I+efhMZB/BrrvsBTVWKRNLQkWtWO1WrC8/59Jh9+i8SNG9RQ32cFNdpHmKlrt4ZnhdAbeGd1JbKJvpialqsSy4PMElwVxGXFLsvgyY9gDUogMHY6m0DAtsdRlO1y2Sxyc4J1lnO3mtc+nyTjBeJO6SRnEB5vUkBV8T0rHkG7Rnf0Dp7e+Q+juMA0riEcs4z5JTqmqaPF+9FYt8gLicNH0p7vQs/Qz/M5vsnvzdyB8jFXexUup68YEskC5xfLs7zl87T8wya/TsKCiA8mknMnqCC4gadALs00tOikTJ4pwvp2+AmIhrwFtHpY4q3cP11lLL7AW2mjXGxi8s0skorgCfLPuZulVnYVXbpAaclZajGKi80W8XmVMLodrNtnee9LECN0G4rYQv2stnn7D8i4lLn/0/ivfrzPtF7PuXADyQFgpP30M5H8MyBRLUWbuiCV8Yupx6aFZMfXmqrpRacubkWSKZ1RIFSWTWuLWnE2UXH2Luh6Xp/hsUwlxq+KiWT1WVQg+4qRHkwmvWcJHSr+uCSEYxbQ3/e28ImpLqB2gdMuWnISq2QA3IWqF+JE54n1Ldj1Z5rh8i/nRjzh6428I7S1m1RLPKUnOULfEOaOE+uhxWVCJdkP1NSqBLkQWMkM2P8/Ok1/GjT9Ony/b7SrYyBnfkblNt/wB+y//W5rupzSc0QSLi7MqSU1SyGuZolG2pSTOJkdqRqQDmZfrYUw8kTJLGIsXYozFcinODeUeLY1kjthlY5WVYq6N7SkqTtiUiJgDMVfGnKNBXGOjYnTKWdsQqh0mk8tMJleZTK7BeA+qbevoKnrXtiGHkpkuPdbnkHzHQxn4Pm97rKBVbA9dr8dAXgOZnwGznRnjCyul9FIa1C3RMNQXyw5aemeVQMR6R10qf4KEliSYNQgI0ZmqptMZLldWb3Vd2aVNID8lrAfW99YokU3NAlKZz1TIHBJL2WpIUi1oV3PabsVylUFGzLZuMppeJ7KBypRGHLFtwUd81eG4S3/yA/Zf/yahfZWQD6g4hdAh3vjNoorPRis0cTkgNkBFV2XmTNHpp9i6+ts0m58ic710L4kBzHVk7pPiT9n/hz9E5j+g1gOmjdEwU84m/pcdQYoahhQZnsE1VuNdq+ssrBjG15UplEYFHYbAQdayEWspMGrGITT1GApTLavJDiX166kTvprZxBA3BjdF3BTnx3bUu8x2nwHZsKYR2SyVhzGkBhUPvirzl0sWXFifB7Ppwx13Eazn3z+CzLejtKRu1t8+BnJ+hxNZHr2w+xmQrT1uUJmImPh5pWoD2ZySS/Ioo0a7M7OKqJKcoM5KKYKQWJXM9ASXx4hYO956By98byGC76yrhxZcB+kU8gHkY+gWsDqlbQ9ZLQ5YrA5YdSeWdXVCzGOq5jKXrv0yG3sfAa6T2cZRkROIzwgr4A55/kMevvY1WLxISA9o/Ck+WH7AEnpqzSE4Er192GRNFDFkzvKIPPoVZnu/wWz3c+CfNiuprogS9CT2Qd/k+LWv0O6/QJVuszFagCzI2qG+po/FHZcE0pXhbXYevZpgYWSKEgo7yh5zUoCOlaIo+UpVS3CVZ9rPUySrLwPaJibl6zfBbaJ+RhhtI2EDX28Rmi2qegMJRZmThr4XnJ/g3cxUThhIPUZp67ONbZXiCUjxLMDunwsRb7njLtx/53nYd16PgXxxnafv7SRe8FUGIBuBqdzERmG0+0NJpckhYOJ6SiJJIpFILlGVeXnDMmXswT5p4WgnJDeINuD6Ip1q2W+ozNjKAjijW92h7+7h5YQc95kfvUZa3sflFqcdXqzDJ+uSpEtiTmRxdGmGb66zc/WTzC7/Kvin6dIlvJuYS+ooon93YfVTDt74T8ST71LlezTuGO+1iMQBavpjIkIkmmufGkRqko/MY02sPsJk97NsX/4tqJ8DrY2u5Ctwkcghjrus7v01J7f/EmlfYWt8ChzbxuYb+mRAfrSR3rqOQhayVnQyI0ko0DRVkyEvIDj6mNbZY6QiYyGAye0WWpUb4UtCqmquEJo9XLWLhA0kTMs0xYk1kFwYD3MOQ3OZWfee63quc6grC4NKocuWlaDsFroIvQuoHH5y8UdvR+nbnv4YyI8AeThsXQSy7ZBGABCwrKgmoiTqNRFkSGhZ+bkoaq0VIqxoYr2RopbI8SqolFGdrgeJ5TILTkMZrXqCpoccPHyBk+MfUMldPPdx/QqfVja3OHd46W3Koxj7SUJAfcOyn5H9Naa7n2a692moPsAqXS0dThXBg6aeyj+E9AaL219jdfhfCPEWFQel1W8gjpRtyEHvIknAx8oGjrmWRS90/jnG259i9/rvQP0hm4XVe3yoQXpiOia4fdLZ97j/+jdg/mO2x8eQTXXSV1P6PuNLD7ONgi0utDpC8mQRViGRSq136FQyZlxAtUb81NRO8tj46Doma2PC9G7E1s41XNigrncJ9SWoLoHfKtbVpHQH4A1BVC7ldKeO2lWDvzzcMVbHsmeWf5dgVkv8nm14vQ57wM8g9HzZZ7p4f777eo8DuZzw9Ul6ByBTdsbi6gy7ZM6J5CJqxLoiSWsxchSTXHMacTna3i2UWC8hWuY55WBZaGlQaewaC5gmhlgpKQPuCOIdHt76c/bvfZOKWzT+ASNfE/BI7NZ87iAZKRTLBGQJLOMGvbvK9NLnmF37dRh9FOUGfRbjnwCpV2p3AHKH7u6fc/rgW1TpDWoeQO7s8xV5IRWTqul8JguE6KnEIX7Fosu07mmazU+we+P3of4lYJO+r6iqyiYsxBN8OIL2Re6++mfo2Q/YavYhPcBLR6im9FGxVJdam6hgbnQO+FShoqyqnui0nHejOKqMUMZkndDFBnGbVPUu9WiXZrxHM9oyHWw/QVONhJm500zWfdYp2aA3H0JJTtoQdieWUPPiDaPJDMGQGbccB+dg1lSsgCt17qLsUvJzVgR/tzVsCO+0ygZxwYN8DORHTtajQP7HlskHZBwtIXY4aWyivfOoc7hsmsbW/F740/EY+gfQH9D3FX1scM0lRrNr5DCjZ4STopiRLSFCfgjykLO3vsrpw28ycXdouF+GbNd4TUYpVdOeBsuSh9GIZdfRsUXHJXT8MXZvfAE/+xjRPbUub2lpjQtyCtyHxQs8ePmPYfkTxu4BwUU8qczDckZ0qzzLHMkq1MkRckLcGUkcC73OQp/l5gf+Dcx+FbhMm0ZU3hsbKi3KyNWX2H/zG/RHLzCr7lOxD3lhEyCKpRMnEArrLnvIFT6ZJ9EKNtqGhpRHZJ1R1ZcYT6/TTK4Stp6yOqyU+HXQBRvc4VSjmHaZfShfRtCU5GYZKC+AqEdyZXpnZfaS+iGTWdxs5fz+kUIoWd9e73BfOf4RsL7TY8PP5JGd4DGQf2a9wwl/l9UV17phgde5uZ5Zz2sD6ayMBDmB9oi+fcBq9YDU3kX7hyxiQ5enNBvPsHP1o4w2nyHK3rn0a1YqAZIBeXX7P3F2/y+Y6l1GPKDDEcVb07yWquSQJAF87WljIroNVrpFHn2E3Ru/Qdj6BJEbaIniVc3dq2QO7MPqezx85SuE/ifU3MaludWyfY06R3aZSCaLZYqb7PA5AqdElHne4yw/zc0P/+8w+zRwjWUaEZwQRJHY2t+JP+DB7b+gP/4em/U+tTuG3JKpiMnhxHIQPUqXhSQjnIxp/Izgp3S5ItQbVPUGodrCV7uE0R5MroJsQazKgPGRAVgGVU4DQUpl0iNWkzViiZbAaDgGmIYi8evXTpy6ZHXtizVfLhjMt99KF3jbQ+ODrXe6D4efvdtjg6W39R4H8i+2crbastf7kO6YJnJ7RNe3xNyj3SHSn5DjMbk7InbHpHSCS4d4PaFzM1ayQZg+z6UnPkOz9XESN4nZrIwDgoDLB8BD4r1vcHbnm0z6e9S6T/JLOt+Wpnm10kuhDCKCOOtbTn7GIk2I9QfYvfHrVLufRLlBogFGVtdUIdCCHkH7Yw7f/DohvkhIr0J3ZA0NoUZ8oCfSpp7K1QQN1NmVmHAOmpmzyzw/xZXn/jfY/CzwJMs0BpPYI6SE84fgf8jJvW8wf/BdKn1AJUvQTNIxMY0IfmYkizAm+xlU21TVNuN6izps48OOjT+tJhbva9G/9mZ9U5KSnDIO+0CgsC+5zB7mHHVrE2pZb2UQQxBEw/lI0wLUNZABikzU+WsNQDZ4WZlsXYtE8HgLkt9l/dfA8nyneAzkn7uGU/P2rbWs3BoXef5DupPvkdID+v4+bbuk7VvoTwi6LHpRJlbunTLyLbVridWUJQ19+CCbVz5DvfMZsj5HmwLOT3AieMk4PQR9iO5/i7M7f0GzuE2d9slhTgrL9U4/1FEHon7OvbGbwoRFHNH5Z9i6/mmay58B/7QN92ZCLjK6XnvIp5Be4ezuX9KfvUBIL+P7AwJLxNXgA71k+hyRaFM0Qgrm5Lkl2Qmdv8SSm+w8+QdUO5+H8DTLPAYiTjM+ZYJfgH+T+f63Obzz9+T2HnXIVFWNq7YQt0FdbeHDBn60jWu2odrB+ZnpYMsUutK+WRhrhq5C6JChrm+IkmJ1GX4iSmZoCBkAaEvWuW8DqRhqLWlpD9ifUi60TNoz12CyP/I2IA+/rP8VQP5vW4+B/I7r3U7J2wAdj2Bxn+X+X3Dy8Bs4uUcdHpKzJUgktaYXNahIihEnAhmviV6UZVba8AGmVz7DxpXfgvARuhzAj81Dl0zgGHgAp3/N6VtfI5y+wTjuk/3S2GGUdkMd+LiWIc2pxwcHbkybGpY8xXT344yvfx6a94NMyTIjrwkVGckL4BbtwQsc3fsGIf6UEccEnRunWLwNknOCl4gkRWNNTqC+g+BJfofobtBs/ibjnc8g46fpdQrSW/43GfdaXM/i4A1O9/8B4jGTaUUzmRCabUtIuTL3KVhftXkPJg8k6omdVQRErFNJJZVe7KGyYIiz5KFloAdAKucEDeX8kg9diQPk7IcFiAW0iuI04PJAWBmeaHVjKB0YsmaBQNG0vvCSa5nff4p17mQ/Xm9b57vnux7OmZohHTEekuNDvO5TuxMmYcmkahn7lnHV09SRqoqIiyTt6FJLjC0u9bjc2mgSluB7vLPxm3bpfZnbO4Z6ioaG3gnJWcZ46KHNAskpyeX11+yNSZboC+kj0q5OoT0rrDDOGVEYCcWmIE6pml0yYxIjtAxPy1rZwLU8QpmSdUZkk5YdlnKZBVeZc4UllywmZxPyCElFu7lsGEggMwLdZjR7jt2rn2DvxmfZeOJz1Jc/hdv8KIw+CPXTEJ4A3SOnLdo4pY0NMTckqfFNg6srNNgY2PUc5aJkb7Z4cFjOr9t5Vdf4eRcv+YWnnR/l9VRNRUYHLZmCU2NuvQ3EDOL0JRZW2zKGmve5j37x+O9fj4H8j66fc7IlQLNJNduhnm3g6xGKEHslx8K/zo6kSibZaBm/IlVLUr0k1IlJ42hCT46Hls3mEO/mZX6UZa4yY7Jugt8i+ym9VHTeEV0guYrkPMk5kocYoA+ZvsrkOpOqRPQ9hISGnjaeEvvTInQnkCskD2wkq78iE1y1RVVv4/xsXXt1box3U1TH9P2YebvBvN+jlZvE+gPk8UfQyUdh/CFc8yzN+H34cB1JW0g/QtIIx9gaSZiS3QhpNqi2ruM3n4RqD2WbJRN6prQp0CdPyjazSjEPxUmP0JOIRI1k7RGB4CuCawgywekYl0a41CC5RjSgRQA/q66FFs0mKtaJ3trMLpaILk2oXnq85FJYNHfYUVtyzLVkvyS7Fdl1ZBdNhQWLl+0Ykmi5iDEMFYy+xMwDqC8e73K//Zz1GMjvuga3Z72vv+1xa2bPyUO9gW92kTAhq0MTRe3QLJ0AWaNRPNU6h4fh2aCkeEY7v8P87A4aD627x3mcZPyaY1CBbBJll0QzOHiFhO9RMZLEoAoJun591R58j7gVKZ3aZAU13StK7lTK3xEo/bIzXH2V5J9kyXXmPEnrb9JXTxP9U7R6k2b715hd/U22b3yBq8/8c64993tce//vc+2Z3+P6s1+mmT0DYdOocAqU8Sk25ga6PpY2wIqUKpQJHQ0pNyhNYV2Ncb6hCjVNqAnOk3Om71sLWZzgnDP1ELFCvEYl97qu6w8uNcXi6rr2O5wqg569SbO4Uk6GhTdGzpDiUZhnYef20VWs7zvcK7bO76Xz5737/WXr7X/jndfjGPnnrnc6NRdPeEJTj/QvcHj3qyz2/5qJvMSIwAhPjNaap66z+DGPQUfWgaOmDtZn0HqLVZ5S732BzSe/DO59dHkPn5O1JZZCr8bXePDWXyGHX2OLH5Z5QAo+kyWSiagkS1zh0dyTU486xddjVvkKbbrOZOPX2HjiC1C/H/LehWRPNkvhzsAds3/7eywXt8jxGEfLqJ4wm24ymmxBtQn1HjhryTs/hjptXbjH53I0RrMcnNlCqlQ5V7oY8F5ubKPFrH95/a9za/X2m//t3//89egrDK/59jU849FnvvPzh/f7Tu9jeO7F33mn5/Fzfv7u67FF/rlr2CkvHm9/hgIB56Y4V5ebUM1tGtysosxo8ZS9hjGVSslCM44e1ZacB0tpPydbex+A+DGh3gJX0ceOlFqzrNpb7CUWI6YkxORQRqhMyTKxCQZSk50RVsqbN0O1rpqU+rfUwJSdy89z7eanefKZ3+LGc19m75kvMrr6edj4FWieB7lB5CqRSyR2yOyg7AC7wKaB+R1PnbmQdlYot6El6EQ9rpTRHrVaF5dc2Hze7Tn/+Hr0N4bXfPvxs69tPynexSPHzz73fA2PvdNrv/34b1+PgfwLrQRiM3qbMKIKNQKoZJJES0Y5TxZHEkdykHwi+UT2yTofjdMHIuQYybEt8ZrVMGEQ1TLNrtGooW4afPB4H/F+RfCREBTvPT40uDBBwgau3kWaPXLYo5VdFmnKSV+zv0gcHJ2RcjZFDecM3C6U+cRjYAPxl/DVE/jmaQjPgrwPuAn9k9DuobqBUFnMSFXCiPOSz8+ut9/Ej9c/1XoM5F94CciIptqhCpsgZpVtZjGw7jwts3oko5LJYj21TmzKhSOR45LUzyG3iPY4j3GbVYpaRUU1mlGNt5FmG6mMMxxlSpdnrOIGy36bVbrEKl/meLXD0XKPZb5BDs9RzT7EdOd5prvvp9m8Bn5c3ttATTQJHLPII8RtGENKtyBvgm6CboPfhXoPkSmOpoDZaKU/H6SPWiWLly1X8E7H4/Vfvx7HyL/IGiYkxNswf5nFwz9ldfZ1as6omaO5RnRE9pHszHIjFGtryTCSkGRMkgnL6peYXv1NJlu/TJanbVB6KkBzHnGHxPYV5nf/hHj0LbyeEaSlL7OMY67Jboz3G4if4fwUF6ZUoynNbAupd8hhC189gZMrCJso4/XHGaBjX/N5VrUkicziXiAxSCrDwy8CdPj689Zwyz0G6z/VegzkX2QNpy7dh9Vtuod/xNnhn1BzQM0BomMkj8kurul8Wsj0wpApVqKOSW7GnA8yvfJ5ZrsfR8MzNhMqVeBGZBdwnNHFtzi+/TWW+39DYEUdsmlA+U1cmFE1m1SlCd7X2+CnNkvXm/BfItCnKcgGlZs+CsxHQKw25kWs6wfE9OmUooYieP/OCZ/HAP0fvx4D+RdYa7uSzqDfp3/wh5w8/ENq7tBwF68TXJqgLqMukSWb3rUMzeXW/tjrhCybnKZnmV7+LJt7H4f6WRslkyqim1hzBBHhlOXhC8T5izgiVRB8tYMP2/hqiqumUI0LiWRkRP+hDCPFiS/D2QLVue1cE/pLLXNdxuIRYOr6O7funlo/9rZb6bF7/D9uPQbyL7AG57PKLaRj+gf/lqMH/zd1fpNG3sLnCT5P1plhY19R5hlbLRVV+jwhs8VZvMl075NsX/4YbvQ0uBk5V/SM6HLAe6gkIfEWgQelWC02JoZpUb4QYsqkDJWf4mRk4u1qNWab4Ge1VbHUucFzzRkeykO6ntvsnOlF52w0Cu9LzRbrr330BrLvlEGRcliPQf3/5vrHgpnH6+esDHQKiTKepWoIoykaAhTaYAQr+YQRKUyJskErG6xkm85fpvfXabnGKl/FNU+SdYsuVqgEFCU74xH7YAWPpAHnLoN7yg5uAFfJ7JHYIbGD+B1CtY26CYkalQZ1tbXsqcn7krtieQcfv3CJhUL29zjX4Jzxw0UqvG8IfoRIabMsCB6c6TVx4oIc0uCmvx3uj9c/7XpskX+BNRDuGm3xuoTFNzh5+CfExUvU3CGoUQU7hS4rXa5IrsFVE3OBtUKkoa4uMR5fpRo/jWtuQr0LsnFhnFxN1tq4uwqBaILu3mJupSnNBHqhXS6vBfyMdIGNe1237lEUxXyxxgPgOC8R6c/u88q5cX0X7/sCcIcnDA8OkH+8/qnXYyD/AisVxmylHZ4WXX6bw/tfY370Ei7fp6k2qMKMLIHkAtlvIPU29XiTMNpkVG/h/axME5iCbqFs2sxjqjKpbyhfeSR7I0poAZ4rXFC1hndLpqWyxSRz4dWkYY18YT8fACVSgHwBdPZ/+dkykp5/exGe7wzLn2eB3/23Hq///vUYyL/AykBUcKkjSI/2P+X06AVOj9/E6Ql1NaGuJvhmTBiNcfUlXLWDC+f6UAOtMfeBnBtExrhQIc4z9NrY+EwpIL4Q1xa327Sg3Dkxv1Ahsw5cY3u+rBvbi7V1hYf8CIiH9Sjghn89CveLFMq3r3e7rd79Nx6v//71GMi/4MoZyBEnCeQhuX+Lvj3F+4R3wZJCdV0YU1vADC0uc1RrvHBSE2hKmceAZa1yRuu0WUTgdOizK2AoGtpS3OdzLrPRQ1GbS6SsOy8AitqFN1bk+pO8HcwDWO33zpsKrF3DIBwKk+vx+v96/T9yEU1V5vGSdgAAAABJRU5ErkJggg==;" vertex="1" parent="1">
          <mxGeometry x="388" y="120" width="86.17" height="71.93" as="geometry" />
        </mxCell>
        <mxCell id="QqyXvFsGp9C_HlbH7b5Y-9" value="" style="endArrow=classic;html=1;rounded=0;exitX=1;exitY=0.5;exitDx=0;exitDy=0;entryX=0;entryY=0.5;entryDx=0;entryDy=0;flowAnimation=1;strokeColor=#FF66FF;" edge="1" parent="1">
          <mxGeometry width="50" height="50" relative="1" as="geometry">
            <mxPoint x="256" y="155.47" as="sourcePoint" />
            <mxPoint x="388" y="155.47" as="targetPoint" />
          </mxGeometry>
        </mxCell>
        <mxCell id="QqyXvFsGp9C_HlbH7b5Y-10" value="Grafana loki" style="text;html=1;align=center;verticalAlign=middle;whiteSpace=wrap;rounded=0;" vertex="1" parent="1">
          <mxGeometry x="385.59" y="201" width="91" height="30" as="geometry" />
        </mxCell>
      </root>
    </mxGraphModel>
  </diagram>
</mxfile>
